<svg xmlns="http://www.w3.org/2000/svg" xmlns:xlink="http://www.w3.org/1999/xlink" width="350" zoomAndPan="magnify" viewBox="0 0 262.5 187.499995" height="250" preserveAspectRatio="xMidYMid meet" version="1.2"><defs><clipPath id="b9d1416290"><path d="M 0.101562 0 L 261.902344 0 L 261.902344 187 L 0.101562 187 Z M 0.101562 0 "/></clipPath></defs><g id="50e4af05b7"><g clip-rule="nonzero" clip-path="url(#b9d1416290)"><path style=" stroke:none;fill-rule:nonzero;fill:#ffffff;fill-opacity:1;" d="M 0.101562 0 L 261.902344 0 L 261.902344 187 L 0.101562 187 Z M 0.101562 0 "/><path style=" stroke:none;fill-rule:nonzero;fill:#000000;fill-opacity:1;" d="M 0.101562 0 L 261.902344 0 L 261.902344 187 L 0.101562 187 Z M 0.101562 0 "/></g><g style="fill:#ff8d55;fill-opacity:0.4;"><g transform="translate(85.495895, 89.161581)"><path style="stroke:none" d="M 7.859375 -4.328125 L 20.15625 -4.328125 L 20.15625 0 L 2.03125 0 L 2.03125 -4.328125 L 14.296875 -18.875 L 2.03125 -18.875 L 2.03125 -23.203125 L 20.125 -23.203125 L 20.125 -18.875 Z M 7.859375 -4.328125 "/></g></g><g style="fill:#ff8d55;fill-opacity:0.4;"><g transform="translate(107.676673, 89.161581)"><path style="stroke:none" d="M 15.484375 -18.90625 L 6.375 -18.90625 L 6.375 -13.796875 L 11.796875 -13.796875 L 11.796875 -9.484375 L 6.375 -9.484375 L 6.375 -4.328125 L 15.484375 -4.328125 L 15.484375 0 L 2.03125 0 L 2.03125 -23.234375 L 15.484375 -23.234375 Z M 15.484375 -18.90625 "/></g></g><g style="fill:#ff8d55;fill-opacity:0.4;"><g transform="translate(125.189338, 89.161581)"><path style="stroke:none" d="M 20.15625 -14.5 C 20.15625 -13.050781 19.957031 -11.707031 19.5625 -10.46875 C 19.164062 -9.226562 18.484375 -8.210938 17.515625 -7.421875 L 20.15625 0 L 15.609375 0 L 13.515625 -5.859375 C 13.046875 -5.796875 12.550781 -5.765625 12.03125 -5.765625 L 6.375 -5.765625 L 6.375 0 L 2.03125 0 L 2.03125 -23.203125 L 12.03125 -23.203125 C 14.007812 -23.203125 15.59375 -22.804688 16.78125 -22.015625 C 17.96875 -21.234375 18.828125 -20.1875 19.359375 -18.875 C 19.890625 -17.5625 20.15625 -16.101562 20.15625 -14.5 Z M 6.375 -10.125 L 12.03125 -10.125 C 13.519531 -10.125 14.507812 -10.429688 15 -11.046875 C 15.539062 -11.703125 15.8125 -12.851562 15.8125 -14.5 C 15.8125 -16.0625 15.53125 -17.203125 14.96875 -17.921875 C 14.90625 -17.992188 14.773438 -18.109375 14.578125 -18.265625 C 14.390625 -18.421875 14.097656 -18.5625 13.703125 -18.6875 C 13.304688 -18.8125 12.75 -18.875 12.03125 -18.875 L 6.375 -18.875 Z M 6.375 -10.125 "/></g></g><g style="fill:#ff8d55;fill-opacity:0.4;"><g transform="translate(147.370118, 89.161581)"><path style="stroke:none" d="M 12.875 -23.484375 C 14.519531 -23.484375 16.054688 -23.175781 17.484375 -22.5625 C 18.921875 -21.945312 20.175781 -21.097656 21.25 -20.015625 C 22.332031 -18.929688 23.179688 -17.671875 23.796875 -16.234375 C 24.421875 -14.804688 24.734375 -13.269531 24.734375 -11.625 C 24.734375 -9.976562 24.421875 -8.441406 23.796875 -7.015625 C 23.179688 -5.585938 22.332031 -4.332031 21.25 -3.25 C 20.175781 -2.164062 18.921875 -1.3125 17.484375 -0.6875 C 16.054688 -0.0703125 14.519531 0.234375 12.875 0.234375 C 11.226562 0.234375 9.691406 -0.0703125 8.265625 -0.6875 C 6.835938 -1.3125 5.582031 -2.164062 4.5 -3.25 C 3.414062 -4.332031 2.5625 -5.585938 1.9375 -7.015625 C 1.320312 -8.441406 1.015625 -9.976562 1.015625 -11.625 C 1.015625 -13.269531 1.320312 -14.804688 1.9375 -16.234375 C 2.5625 -17.671875 3.414062 -18.929688 4.5 -20.015625 C 5.582031 -21.097656 6.835938 -21.945312 8.265625 -22.5625 C 9.691406 -23.175781 11.226562 -23.484375 12.875 -23.484375 Z M 12.875 -19.046875 C 11.519531 -19.046875 10.316406 -18.710938 9.265625 -18.046875 C 8.210938 -17.378906 7.382812 -16.484375 6.78125 -15.359375 C 6.1875 -14.242188 5.890625 -13 5.890625 -11.625 C 5.890625 -10.269531 6.1875 -9.023438 6.78125 -7.890625 C 7.382812 -6.765625 8.210938 -5.867188 9.265625 -5.203125 C 10.316406 -4.535156 11.519531 -4.203125 12.875 -4.203125 C 14.25 -4.203125 15.460938 -4.535156 16.515625 -5.203125 C 17.566406 -5.867188 18.390625 -6.765625 18.984375 -7.890625 C 19.585938 -9.023438 19.890625 -10.269531 19.890625 -11.625 C 19.890625 -13 19.585938 -14.242188 18.984375 -15.359375 C 18.390625 -16.484375 17.566406 -17.378906 16.515625 -18.046875 C 15.460938 -18.710938 14.25 -19.046875 12.875 -19.046875 Z M 12.875 -19.046875 "/></g></g><g style="fill:#e2a165;fill-opacity:1;"><g transform="translate(87.187876, 88.512088)"><path style="stroke:none" d="M 7.859375 -4.328125 L 20.15625 -4.328125 L 20.15625 0 L 2.03125 0 L 2.03125 -4.328125 L 14.296875 -18.875 L 2.03125 -18.875 L 2.03125 -23.203125 L 20.125 -23.203125 L 20.125 -18.875 Z M 7.859375 -4.328125 "/></g></g><g style="fill:#e2a165;fill-opacity:1;"><g transform="translate(109.368654, 88.512088)"><path style="stroke:none" d="M 15.484375 -18.90625 L 6.375 -18.90625 L 6.375 -13.796875 L 11.796875 -13.796875 L 11.796875 -9.484375 L 6.375 -9.484375 L 6.375 -4.328125 L 15.484375 -4.328125 L 15.484375 0 L 2.03125 0 L 2.03125 -23.234375 L 15.484375 -23.234375 Z M 15.484375 -18.90625 "/></g></g><g style="fill:#e2a165;fill-opacity:1;"><g transform="translate(126.881318, 88.512088)"><path style="stroke:none" d="M 20.15625 -14.5 C 20.15625 -13.050781 19.957031 -11.707031 19.5625 -10.46875 C 19.164062 -9.226562 18.484375 -8.210938 17.515625 -7.421875 L 20.15625 0 L 15.609375 0 L 13.515625 -5.859375 C 13.046875 -5.796875 12.550781 -5.765625 12.03125 -5.765625 L 6.375 -5.765625 L 6.375 0 L 2.03125 0 L 2.03125 -23.203125 L 12.03125 -23.203125 C 14.007812 -23.203125 15.59375 -22.804688 16.78125 -22.015625 C 17.96875 -21.234375 18.828125 -20.1875 19.359375 -18.875 C 19.890625 -17.5625 20.15625 -16.101562 20.15625 -14.5 Z M 6.375 -10.125 L 12.03125 -10.125 C 13.519531 -10.125 14.507812 -10.429688 15 -11.046875 C 15.539062 -11.703125 15.8125 -12.851562 15.8125 -14.5 C 15.8125 -16.0625 15.53125 -17.203125 14.96875 -17.921875 C 14.90625 -17.992188 14.773438 -18.109375 14.578125 -18.265625 C 14.390625 -18.421875 14.097656 -18.5625 13.703125 -18.6875 C 13.304688 -18.8125 12.75 -18.875 12.03125 -18.875 L 6.375 -18.875 Z M 6.375 -10.125 "/></g></g><g style="fill:#e2a165;fill-opacity:1;"><g transform="translate(149.062098, 88.512088)"><path style="stroke:none" d="M 12.875 -23.484375 C 14.519531 -23.484375 16.054688 -23.175781 17.484375 -22.5625 C 18.921875 -21.945312 20.175781 -21.097656 21.25 -20.015625 C 22.332031 -18.929688 23.179688 -17.671875 23.796875 -16.234375 C 24.421875 -14.804688 24.734375 -13.269531 24.734375 -11.625 C 24.734375 -9.976562 24.421875 -8.441406 23.796875 -7.015625 C 23.179688 -5.585938 22.332031 -4.332031 21.25 -3.25 C 20.175781 -2.164062 18.921875 -1.3125 17.484375 -0.6875 C 16.054688 -0.0703125 14.519531 0.234375 12.875 0.234375 C 11.226562 0.234375 9.691406 -0.0703125 8.265625 -0.6875 C 6.835938 -1.3125 5.582031 -2.164062 4.5 -3.25 C 3.414062 -4.332031 2.5625 -5.585938 1.9375 -7.015625 C 1.320312 -8.441406 1.015625 -9.976562 1.015625 -11.625 C 1.015625 -13.269531 1.320312 -14.804688 1.9375 -16.234375 C 2.5625 -17.671875 3.414062 -18.929688 4.5 -20.015625 C 5.582031 -21.097656 6.835938 -21.945312 8.265625 -22.5625 C 9.691406 -23.175781 11.226562 -23.484375 12.875 -23.484375 Z M 12.875 -19.046875 C 11.519531 -19.046875 10.316406 -18.710938 9.265625 -18.046875 C 8.210938 -17.378906 7.382812 -16.484375 6.78125 -15.359375 C 6.1875 -14.242188 5.890625 -13 5.890625 -11.625 C 5.890625 -10.269531 6.1875 -9.023438 6.78125 -7.890625 C 7.382812 -6.765625 8.210938 -5.867188 9.265625 -5.203125 C 10.316406 -4.535156 11.519531 -4.203125 12.875 -4.203125 C 14.25 -4.203125 15.460938 -4.535156 16.515625 -5.203125 C 17.566406 -5.867188 18.390625 -6.765625 18.984375 -7.890625 C 19.585938 -9.023438 19.890625 -10.269531 19.890625 -11.625 C 19.890625 -13 19.585938 -14.242188 18.984375 -15.359375 C 18.390625 -16.484375 17.566406 -17.378906 16.515625 -18.046875 C 15.460938 -18.710938 14.25 -19.046875 12.875 -19.046875 Z M 12.875 -19.046875 "/></g></g><g style="fill:#ffffff;fill-opacity:0.4;"><g transform="translate(71.216169, 122.137584)"><path style="stroke:none" d="M 11.65625 0.296875 C 11.195312 0.296875 10.539062 0.242188 9.6875 0.140625 C 8.832031 0.046875 7.914062 -0.164062 6.9375 -0.5 C 5.96875 -0.84375 5.035156 -1.375 4.140625 -2.09375 C 3.316406 -2.78125 2.613281 -3.550781 2.03125 -4.40625 L 5.5625 -6.8125 C 5.757812 -6.539062 5.957031 -6.289062 6.15625 -6.0625 C 6.363281 -5.832031 6.59375 -5.617188 6.84375 -5.421875 C 7.320312 -5.015625 7.859375 -4.710938 8.453125 -4.515625 C 9.046875 -4.328125 9.609375 -4.191406 10.140625 -4.109375 C 10.671875 -4.035156 11.109375 -4 11.453125 -4 C 11.804688 -4 11.984375 -4 11.984375 -4 L 12.125 -4 C 13.320312 -4 14.25 -4.257812 14.90625 -4.78125 C 15.5625 -5.300781 15.910156 -5.875 15.953125 -6.5 C 15.992188 -7.175781 15.640625 -7.851562 14.890625 -8.53125 C 14.148438 -9.207031 12.925781 -9.660156 11.21875 -9.890625 C 8.664062 -10.160156 6.640625 -10.992188 5.140625 -12.390625 C 4.378906 -13.078125 3.8125 -13.859375 3.4375 -14.734375 C 3.0625 -15.617188 2.910156 -16.523438 2.984375 -17.453125 C 3.078125 -18.515625 3.472656 -19.523438 4.171875 -20.484375 C 4.867188 -21.441406 5.898438 -22.207031 7.265625 -22.78125 C 8.628906 -23.351562 10.335938 -23.582031 12.390625 -23.46875 C 13.316406 -23.46875 14.238281 -23.347656 15.15625 -23.109375 C 16.070312 -22.878906 16.925781 -22.578125 17.71875 -22.203125 C 18.507812 -21.835938 19.175781 -21.453125 19.71875 -21.046875 L 17.21875 -17.578125 C 16.875 -17.847656 16.425781 -18.101562 15.875 -18.34375 C 15.320312 -18.582031 14.734375 -18.785156 14.109375 -18.953125 C 13.492188 -19.117188 12.898438 -19.203125 12.328125 -19.203125 L 12.234375 -19.203125 C 10.648438 -19.273438 9.429688 -19.085938 8.578125 -18.640625 C 7.734375 -18.203125 7.289062 -17.691406 7.25 -17.109375 C 7.207031 -16.566406 7.40625 -16.085938 7.84375 -15.671875 C 8.28125 -15.253906 8.84375 -14.914062 9.53125 -14.65625 C 10.226562 -14.394531 10.945312 -14.21875 11.6875 -14.125 L 11.75 -14.125 C 13.789062 -13.875 15.445312 -13.332031 16.71875 -12.5 C 18 -11.664062 18.921875 -10.6875 19.484375 -9.5625 C 20.046875 -8.445312 20.289062 -7.328125 20.21875 -6.203125 C 20.15625 -5.140625 19.800781 -4.109375 19.15625 -3.109375 C 18.507812 -2.117188 17.597656 -1.304688 16.421875 -0.671875 C 15.253906 -0.046875 13.84375 0.273438 12.1875 0.296875 Z M 11.65625 0.296875 "/></g></g><g style="fill:#ffffff;fill-opacity:0.4;"><g transform="translate(93.454937, 122.137584)"><path style="stroke:none" d="M 15.375 -23.203125 L 19.6875 -23.203125 L 19.6875 -8.03125 C 19.6875 -6.851562 19.460938 -5.742188 19.015625 -4.703125 C 18.578125 -3.671875 17.96875 -2.765625 17.1875 -1.984375 C 16.40625 -1.203125 15.5 -0.585938 14.46875 -0.140625 C 13.445312 0.296875 12.347656 0.515625 11.171875 0.515625 L 10.578125 0.515625 C 9.398438 0.515625 8.296875 0.296875 7.265625 -0.140625 C 6.234375 -0.585938 5.320312 -1.203125 4.53125 -1.984375 C 3.75 -2.765625 3.132812 -3.671875 2.6875 -4.703125 C 2.25 -5.742188 2.03125 -6.851562 2.03125 -8.03125 L 2.03125 -23.203125 L 6.375 -23.203125 L 6.375 -8.03125 C 6.375 -7.257812 6.5625 -6.550781 6.9375 -5.90625 C 7.320312 -5.257812 7.832031 -4.742188 8.46875 -4.359375 C 9.101562 -3.984375 9.804688 -3.796875 10.578125 -3.796875 L 11.171875 -3.796875 C 11.941406 -3.796875 12.644531 -3.984375 13.28125 -4.359375 C 13.914062 -4.742188 14.421875 -5.257812 14.796875 -5.90625 C 15.179688 -6.550781 15.375 -7.257812 15.375 -8.03125 Z M 15.375 -23.203125 "/></g></g><g style="fill:#ffffff;fill-opacity:0.4;"><g transform="translate(115.1718, 122.137584)"><path style="stroke:none" d="M 25.609375 -13.546875 C 25.648438 -13.234375 25.679688 -12.90625 25.703125 -12.5625 C 25.734375 -12.226562 25.75 -11.898438 25.75 -11.578125 C 25.75 -9.929688 25.4375 -8.390625 24.8125 -6.953125 C 24.195312 -5.523438 23.347656 -4.269531 22.265625 -3.1875 C 21.179688 -2.101562 19.925781 -1.25 18.5 -0.625 C 17.070312 -0.0078125 15.535156 0.296875 13.890625 0.296875 C 12.242188 0.296875 10.707031 -0.0078125 9.28125 -0.625 C 7.851562 -1.25 6.597656 -2.101562 5.515625 -3.1875 C 4.429688 -4.269531 3.578125 -5.523438 2.953125 -6.953125 C 2.335938 -8.390625 2.03125 -9.929688 2.03125 -11.578125 C 2.03125 -13.210938 2.335938 -14.742188 2.953125 -16.171875 C 3.578125 -17.609375 4.429688 -18.867188 5.515625 -19.953125 C 6.597656 -21.035156 7.851562 -21.882812 9.28125 -22.5 C 10.707031 -23.125 12.242188 -23.4375 13.890625 -23.4375 C 15.203125 -23.4375 16.457031 -23.234375 17.65625 -22.828125 C 18.851562 -22.421875 19.945312 -21.847656 20.9375 -21.109375 L 17.6875 -17.859375 C 16.601562 -18.617188 15.335938 -19 13.890625 -19 C 12.535156 -19 11.332031 -18.664062 10.28125 -18 C 9.226562 -17.332031 8.398438 -16.4375 7.796875 -15.3125 C 7.203125 -14.1875 6.90625 -12.941406 6.90625 -11.578125 C 6.90625 -10.222656 7.203125 -8.976562 7.796875 -7.84375 C 8.398438 -6.707031 9.226562 -5.804688 10.28125 -5.140625 C 11.332031 -4.472656 12.535156 -4.140625 13.890625 -4.140625 C 15.515625 -4.140625 16.914062 -4.609375 18.09375 -5.546875 C 19.269531 -6.484375 20.082031 -7.671875 20.53125 -9.109375 L 14.796875 -9.109375 L 14.796875 -13.546875 Z M 25.609375 -13.546875 "/></g></g><g style="fill:#ffffff;fill-opacity:0.4;"><g transform="translate(142.948513, 122.137584)"><path style="stroke:none" d="M 15.71875 0 L 14 -5.765625 L 8.296875 -5.765625 L 6.578125 0 L 2.03125 0 L 8.875 -23.203125 L 13.421875 -23.203125 L 13.421875 -23.140625 L 20.234375 0 Z M 9.5625 -10.09375 L 12.734375 -10.09375 L 11.171875 -15.484375 Z M 9.5625 -10.09375 "/></g></g><g style="fill:#ffffff;fill-opacity:0.4;"><g transform="translate(165.216279, 122.137584)"><path style="stroke:none" d="M 20.15625 -14.5 C 20.15625 -13.050781 19.957031 -11.707031 19.5625 -10.46875 C 19.164062 -9.226562 18.484375 -8.210938 17.515625 -7.421875 L 20.15625 0 L 15.609375 0 L 13.515625 -5.859375 C 13.046875 -5.796875 12.550781 -5.765625 12.03125 -5.765625 L 6.375 -5.765625 L 6.375 0 L 2.03125 0 L 2.03125 -23.203125 L 12.03125 -23.203125 C 14.007812 -23.203125 15.59375 -22.804688 16.78125 -22.015625 C 17.96875 -21.234375 18.828125 -20.1875 19.359375 -18.875 C 19.890625 -17.5625 20.15625 -16.101562 20.15625 -14.5 Z M 6.375 -10.125 L 12.03125 -10.125 C 13.519531 -10.125 14.507812 -10.429688 15 -11.046875 C 15.539062 -11.703125 15.8125 -12.851562 15.8125 -14.5 C 15.8125 -16.0625 15.53125 -17.203125 14.96875 -17.921875 C 14.90625 -17.992188 14.773438 -18.109375 14.578125 -18.265625 C 14.390625 -18.421875 14.097656 -18.5625 13.703125 -18.6875 C 13.304688 -18.8125 12.75 -18.875 12.03125 -18.875 L 6.375 -18.875 Z M 6.375 -10.125 "/></g></g><g style="fill:#ffffff;fill-opacity:1;"><g transform="translate(72.90815, 121.48809)"><path style="stroke:none" d="M 11.65625 0.296875 C 11.195312 0.296875 10.539062 0.242188 9.6875 0.140625 C 8.832031 0.046875 7.914062 -0.164062 6.9375 -0.5 C 5.96875 -0.84375 5.035156 -1.375 4.140625 -2.09375 C 3.316406 -2.78125 2.613281 -3.550781 2.03125 -4.40625 L 5.5625 -6.8125 C 5.757812 -6.539062 5.957031 -6.289062 6.15625 -6.0625 C 6.363281 -5.832031 6.59375 -5.617188 6.84375 -5.421875 C 7.320312 -5.015625 7.859375 -4.710938 8.453125 -4.515625 C 9.046875 -4.328125 9.609375 -4.191406 10.140625 -4.109375 C 10.671875 -4.035156 11.109375 -4 11.453125 -4 C 11.804688 -4 11.984375 -4 11.984375 -4 L 12.125 -4 C 13.320312 -4 14.25 -4.257812 14.90625 -4.78125 C 15.5625 -5.300781 15.910156 -5.875 15.953125 -6.5 C 15.992188 -7.175781 15.640625 -7.851562 14.890625 -8.53125 C 14.148438 -9.207031 12.925781 -9.660156 11.21875 -9.890625 C 8.664062 -10.160156 6.640625 -10.992188 5.140625 -12.390625 C 4.378906 -13.078125 3.8125 -13.859375 3.4375 -14.734375 C 3.0625 -15.617188 2.910156 -16.523438 2.984375 -17.453125 C 3.078125 -18.515625 3.472656 -19.523438 4.171875 -20.484375 C 4.867188 -21.441406 5.898438 -22.207031 7.265625 -22.78125 C 8.628906 -23.351562 10.335938 -23.582031 12.390625 -23.46875 C 13.316406 -23.46875 14.238281 -23.347656 15.15625 -23.109375 C 16.070312 -22.878906 16.925781 -22.578125 17.71875 -22.203125 C 18.507812 -21.835938 19.175781 -21.453125 19.71875 -21.046875 L 17.21875 -17.578125 C 16.875 -17.847656 16.425781 -18.101562 15.875 -18.34375 C 15.320312 -18.582031 14.734375 -18.785156 14.109375 -18.953125 C 13.492188 -19.117188 12.898438 -19.203125 12.328125 -19.203125 L 12.234375 -19.203125 C 10.648438 -19.273438 9.429688 -19.085938 8.578125 -18.640625 C 7.734375 -18.203125 7.289062 -17.691406 7.25 -17.109375 C 7.207031 -16.566406 7.40625 -16.085938 7.84375 -15.671875 C 8.28125 -15.253906 8.84375 -14.914062 9.53125 -14.65625 C 10.226562 -14.394531 10.945312 -14.21875 11.6875 -14.125 L 11.75 -14.125 C 13.789062 -13.875 15.445312 -13.332031 16.71875 -12.5 C 18 -11.664062 18.921875 -10.6875 19.484375 -9.5625 C 20.046875 -8.445312 20.289062 -7.328125 20.21875 -6.203125 C 20.15625 -5.140625 19.800781 -4.109375 19.15625 -3.109375 C 18.507812 -2.117188 17.597656 -1.304688 16.421875 -0.671875 C 15.253906 -0.046875 13.84375 0.273438 12.1875 0.296875 Z M 11.65625 0.296875 "/></g></g><g style="fill:#ffffff;fill-opacity:1;"><g transform="translate(95.146918, 121.48809)"><path style="stroke:none" d="M 15.375 -23.203125 L 19.6875 -23.203125 L 19.6875 -8.03125 C 19.6875 -6.851562 19.460938 -5.742188 19.015625 -4.703125 C 18.578125 -3.671875 17.96875 -2.765625 17.1875 -1.984375 C 16.40625 -1.203125 15.5 -0.585938 14.46875 -0.140625 C 13.445312 0.296875 12.347656 0.515625 11.171875 0.515625 L 10.578125 0.515625 C 9.398438 0.515625 8.296875 0.296875 7.265625 -0.140625 C 6.234375 -0.585938 5.320312 -1.203125 4.53125 -1.984375 C 3.75 -2.765625 3.132812 -3.671875 2.6875 -4.703125 C 2.25 -5.742188 2.03125 -6.851562 2.03125 -8.03125 L 2.03125 -23.203125 L 6.375 -23.203125 L 6.375 -8.03125 C 6.375 -7.257812 6.5625 -6.550781 6.9375 -5.90625 C 7.320312 -5.257812 7.832031 -4.742188 8.46875 -4.359375 C 9.101562 -3.984375 9.804688 -3.796875 10.578125 -3.796875 L 11.171875 -3.796875 C 11.941406 -3.796875 12.644531 -3.984375 13.28125 -4.359375 C 13.914062 -4.742188 14.421875 -5.257812 14.796875 -5.90625 C 15.179688 -6.550781 15.375 -7.257812 15.375 -8.03125 Z M 15.375 -23.203125 "/></g></g><g style="fill:#ffffff;fill-opacity:1;"><g transform="translate(116.86378, 121.48809)"><path style="stroke:none" d="M 25.609375 -13.546875 C 25.648438 -13.234375 25.679688 -12.90625 25.703125 -12.5625 C 25.734375 -12.226562 25.75 -11.898438 25.75 -11.578125 C 25.75 -9.929688 25.4375 -8.390625 24.8125 -6.953125 C 24.195312 -5.523438 23.347656 -4.269531 22.265625 -3.1875 C 21.179688 -2.101562 19.925781 -1.25 18.5 -0.625 C 17.070312 -0.0078125 15.535156 0.296875 13.890625 0.296875 C 12.242188 0.296875 10.707031 -0.0078125 9.28125 -0.625 C 7.851562 -1.25 6.597656 -2.101562 5.515625 -3.1875 C 4.429688 -4.269531 3.578125 -5.523438 2.953125 -6.953125 C 2.335938 -8.390625 2.03125 -9.929688 2.03125 -11.578125 C 2.03125 -13.210938 2.335938 -14.742188 2.953125 -16.171875 C 3.578125 -17.609375 4.429688 -18.867188 5.515625 -19.953125 C 6.597656 -21.035156 7.851562 -21.882812 9.28125 -22.5 C 10.707031 -23.125 12.242188 -23.4375 13.890625 -23.4375 C 15.203125 -23.4375 16.457031 -23.234375 17.65625 -22.828125 C 18.851562 -22.421875 19.945312 -21.847656 20.9375 -21.109375 L 17.6875 -17.859375 C 16.601562 -18.617188 15.335938 -19 13.890625 -19 C 12.535156 -19 11.332031 -18.664062 10.28125 -18 C 9.226562 -17.332031 8.398438 -16.4375 7.796875 -15.3125 C 7.203125 -14.1875 6.90625 -12.941406 6.90625 -11.578125 C 6.90625 -10.222656 7.203125 -8.976562 7.796875 -7.84375 C 8.398438 -6.707031 9.226562 -5.804688 10.28125 -5.140625 C 11.332031 -4.472656 12.535156 -4.140625 13.890625 -4.140625 C 15.515625 -4.140625 16.914062 -4.609375 18.09375 -5.546875 C 19.269531 -6.484375 20.082031 -7.671875 20.53125 -9.109375 L 14.796875 -9.109375 L 14.796875 -13.546875 Z M 25.609375 -13.546875 "/></g></g><g style="fill:#ffffff;fill-opacity:1;"><g transform="translate(144.640494, 121.48809)"><path style="stroke:none" d="M 15.71875 0 L 14 -5.765625 L 8.296875 -5.765625 L 6.578125 0 L 2.03125 0 L 8.875 -23.203125 L 13.421875 -23.203125 L 13.421875 -23.140625 L 20.234375 0 Z M 9.5625 -10.09375 L 12.734375 -10.09375 L 11.171875 -15.484375 Z M 9.5625 -10.09375 "/></g></g><g style="fill:#ffffff;fill-opacity:1;"><g transform="translate(166.908259, 121.48809)"><path style="stroke:none" d="M 20.15625 -14.5 C 20.15625 -13.050781 19.957031 -11.707031 19.5625 -10.46875 C 19.164062 -9.226562 18.484375 -8.210938 17.515625 -7.421875 L 20.15625 0 L 15.609375 0 L 13.515625 -5.859375 C 13.046875 -5.796875 12.550781 -5.765625 12.03125 -5.765625 L 6.375 -5.765625 L 6.375 0 L 2.03125 0 L 2.03125 -23.203125 L 12.03125 -23.203125 C 14.007812 -23.203125 15.59375 -22.804688 16.78125 -22.015625 C 17.96875 -21.234375 18.828125 -20.1875 19.359375 -18.875 C 19.890625 -17.5625 20.15625 -16.101562 20.15625 -14.5 Z M 6.375 -10.125 L 12.03125 -10.125 C 13.519531 -10.125 14.507812 -10.429688 15 -11.046875 C 15.539062 -11.703125 15.8125 -12.851562 15.8125 -14.5 C 15.8125 -16.0625 15.53125 -17.203125 14.96875 -17.921875 C 14.90625 -17.992188 14.773438 -18.109375 14.578125 -18.265625 C 14.390625 -18.421875 14.097656 -18.5625 13.703125 -18.6875 C 13.304688 -18.8125 12.75 -18.875 12.03125 -18.875 L 6.375 -18.875 Z M 6.375 -10.125 "/></g></g></g></svg>