<svg xmlns="http://www.w3.org/2000/svg" xmlns:xlink="http://www.w3.org/1999/xlink" width="250" zoomAndPan="magnify" viewBox="0 0 187.5 262.500001" height="350" preserveAspectRatio="xMidYMid meet" version="1.2"><defs><clipPath id="68c7b3d7a3"><path d="M 0 0.101562 L 187 0.101562 L 187 261.902344 L 0 261.902344 Z M 0 0.101562 "/></clipPath></defs><g id="1884a4ac41"><g clip-rule="nonzero" clip-path="url(#68c7b3d7a3)"><path style=" stroke:none;fill-rule:nonzero;fill:#ffffff;fill-opacity:1;" d="M 0 0.101562 L 187 0.101562 L 187 261.902344 L 0 261.902344 Z M 0 0.101562 "/><path style=" stroke:none;fill-rule:nonzero;fill:#ffffff;fill-opacity:1;" d="M 0 0.101562 L 187 0.101562 L 187 261.902344 L 0 261.902344 Z M 0 0.101562 "/><rect x="0" width="187.5" y="0" height="262.500001" style="fill:#000000;fill-opacity:1;stroke:none;"/></g><g style="fill:#ff8d55;fill-opacity:0.4;"><g transform="translate(38.907701, 127.057499)"><path style="stroke:none" d="M 9.421875 -5.1875 L 24.171875 -5.1875 L 24.171875 0 L 2.4375 0 L 2.4375 -5.1875 L 17.140625 -22.640625 L 2.4375 -22.640625 L 2.4375 -27.828125 L 24.140625 -27.828125 L 24.140625 -22.640625 Z M 9.421875 -5.1875 "/></g></g><g style="fill:#ff8d55;fill-opacity:0.4;"><g transform="translate(65.518414, 127.057499)"><path style="stroke:none" d="M 18.578125 -22.671875 L 7.65625 -22.671875 L 7.65625 -16.5625 L 14.15625 -16.5625 L 14.15625 -11.375 L 7.65625 -11.375 L 7.65625 -5.1875 L 18.578125 -5.1875 L 18.578125 0 L 2.4375 0 L 2.4375 -27.859375 L 18.578125 -27.859375 Z M 18.578125 -22.671875 "/></g></g><g style="fill:#ff8d55;fill-opacity:0.4;"><g transform="translate(86.528701, 127.057499)"><path style="stroke:none" d="M 24.171875 -17.390625 C 24.171875 -15.648438 23.929688 -14.035156 23.453125 -12.546875 C 22.984375 -11.066406 22.171875 -9.851562 21.015625 -8.90625 L 24.171875 0 L 18.71875 0 L 16.203125 -7.03125 C 15.648438 -6.957031 15.0625 -6.921875 14.4375 -6.921875 L 7.65625 -6.921875 L 7.65625 0 L 2.4375 0 L 2.4375 -27.828125 L 14.4375 -27.828125 C 16.800781 -27.828125 18.695312 -27.351562 20.125 -26.40625 C 21.550781 -25.46875 22.582031 -24.210938 23.21875 -22.640625 C 23.851562 -21.066406 24.171875 -19.316406 24.171875 -17.390625 Z M 7.65625 -12.140625 L 14.4375 -12.140625 C 16.21875 -12.140625 17.398438 -12.507812 17.984375 -13.25 C 18.628906 -14.039062 18.953125 -15.421875 18.953125 -17.390625 C 18.953125 -19.265625 18.617188 -20.632812 17.953125 -21.5 C 17.878906 -21.59375 17.722656 -21.726562 17.484375 -21.90625 C 17.253906 -22.09375 16.898438 -22.257812 16.421875 -22.40625 C 15.953125 -22.5625 15.289062 -22.640625 14.4375 -22.640625 L 7.65625 -22.640625 Z M 7.65625 -12.140625 "/></g></g><g style="fill:#ff8d55;fill-opacity:0.4;"><g transform="translate(113.139416, 127.057499)"><path style="stroke:none" d="M 15.4375 -28.171875 C 17.414062 -28.171875 19.257812 -27.800781 20.96875 -27.0625 C 22.6875 -26.320312 24.191406 -25.300781 25.484375 -24 C 26.785156 -22.695312 27.804688 -21.1875 28.546875 -19.46875 C 29.296875 -17.757812 29.671875 -15.921875 29.671875 -13.953125 C 29.671875 -11.972656 29.296875 -10.125 28.546875 -8.40625 C 27.804688 -6.695312 26.785156 -5.191406 25.484375 -3.890625 C 24.191406 -2.597656 22.6875 -1.578125 20.96875 -0.828125 C 19.257812 -0.0859375 17.414062 0.28125 15.4375 0.28125 C 13.46875 0.28125 11.625 -0.0859375 9.90625 -0.828125 C 8.195312 -1.578125 6.691406 -2.597656 5.390625 -3.890625 C 4.085938 -5.191406 3.066406 -6.695312 2.328125 -8.40625 C 1.585938 -10.125 1.21875 -11.972656 1.21875 -13.953125 C 1.21875 -15.921875 1.585938 -17.757812 2.328125 -19.46875 C 3.066406 -21.1875 4.085938 -22.695312 5.390625 -24 C 6.691406 -25.300781 8.195312 -26.320312 9.90625 -27.0625 C 11.625 -27.800781 13.46875 -28.171875 15.4375 -28.171875 Z M 15.4375 -22.84375 C 13.820312 -22.84375 12.378906 -22.441406 11.109375 -21.640625 C 9.847656 -20.847656 8.859375 -19.78125 8.140625 -18.4375 C 7.421875 -17.09375 7.0625 -15.597656 7.0625 -13.953125 C 7.0625 -12.328125 7.421875 -10.832031 8.140625 -9.46875 C 8.859375 -8.113281 9.847656 -7.035156 11.109375 -6.234375 C 12.378906 -5.441406 13.820312 -5.046875 15.4375 -5.046875 C 17.082031 -5.046875 18.535156 -5.441406 19.796875 -6.234375 C 21.066406 -7.035156 22.0625 -8.113281 22.78125 -9.46875 C 23.5 -10.832031 23.859375 -12.328125 23.859375 -13.953125 C 23.859375 -15.597656 23.5 -17.09375 22.78125 -18.4375 C 22.0625 -19.78125 21.066406 -20.847656 19.796875 -21.640625 C 18.535156 -22.441406 17.082031 -22.84375 15.4375 -22.84375 Z M 15.4375 -22.84375 "/></g></g><g style="fill:#e2a165;fill-opacity:1;"><g transform="translate(40.937609, 126.278288)"><path style="stroke:none" d="M 9.421875 -5.1875 L 24.171875 -5.1875 L 24.171875 0 L 2.4375 0 L 2.4375 -5.1875 L 17.140625 -22.640625 L 2.4375 -22.640625 L 2.4375 -27.828125 L 24.140625 -27.828125 L 24.140625 -22.640625 Z M 9.421875 -5.1875 "/></g></g><g style="fill:#e2a165;fill-opacity:1;"><g transform="translate(67.548322, 126.278288)"><path style="stroke:none" d="M 18.578125 -22.671875 L 7.65625 -22.671875 L 7.65625 -16.5625 L 14.15625 -16.5625 L 14.15625 -11.375 L 7.65625 -11.375 L 7.65625 -5.1875 L 18.578125 -5.1875 L 18.578125 0 L 2.4375 0 L 2.4375 -27.859375 L 18.578125 -27.859375 Z M 18.578125 -22.671875 "/></g></g><g style="fill:#e2a165;fill-opacity:1;"><g transform="translate(88.558609, 126.278288)"><path style="stroke:none" d="M 24.171875 -17.390625 C 24.171875 -15.648438 23.929688 -14.035156 23.453125 -12.546875 C 22.984375 -11.066406 22.171875 -9.851562 21.015625 -8.90625 L 24.171875 0 L 18.71875 0 L 16.203125 -7.03125 C 15.648438 -6.957031 15.0625 -6.921875 14.4375 -6.921875 L 7.65625 -6.921875 L 7.65625 0 L 2.4375 0 L 2.4375 -27.828125 L 14.4375 -27.828125 C 16.800781 -27.828125 18.695312 -27.351562 20.125 -26.40625 C 21.550781 -25.46875 22.582031 -24.210938 23.21875 -22.640625 C 23.851562 -21.066406 24.171875 -19.316406 24.171875 -17.390625 Z M 7.65625 -12.140625 L 14.4375 -12.140625 C 16.21875 -12.140625 17.398438 -12.507812 17.984375 -13.25 C 18.628906 -14.039062 18.953125 -15.421875 18.953125 -17.390625 C 18.953125 -19.265625 18.617188 -20.632812 17.953125 -21.5 C 17.878906 -21.59375 17.722656 -21.726562 17.484375 -21.90625 C 17.253906 -22.09375 16.898438 -22.257812 16.421875 -22.40625 C 15.953125 -22.5625 15.289062 -22.640625 14.4375 -22.640625 L 7.65625 -22.640625 Z M 7.65625 -12.140625 "/></g></g><g style="fill:#e2a165;fill-opacity:1;"><g transform="translate(115.169325, 126.278288)"><path style="stroke:none" d="M 15.4375 -28.171875 C 17.414062 -28.171875 19.257812 -27.800781 20.96875 -27.0625 C 22.6875 -26.320312 24.191406 -25.300781 25.484375 -24 C 26.785156 -22.695312 27.804688 -21.1875 28.546875 -19.46875 C 29.296875 -17.757812 29.671875 -15.921875 29.671875 -13.953125 C 29.671875 -11.972656 29.296875 -10.125 28.546875 -8.40625 C 27.804688 -6.695312 26.785156 -5.191406 25.484375 -3.890625 C 24.191406 -2.597656 22.6875 -1.578125 20.96875 -0.828125 C 19.257812 -0.0859375 17.414062 0.28125 15.4375 0.28125 C 13.46875 0.28125 11.625 -0.0859375 9.90625 -0.828125 C 8.195312 -1.578125 6.691406 -2.597656 5.390625 -3.890625 C 4.085938 -5.191406 3.066406 -6.695312 2.328125 -8.40625 C 1.585938 -10.125 1.21875 -11.972656 1.21875 -13.953125 C 1.21875 -15.921875 1.585938 -17.757812 2.328125 -19.46875 C 3.066406 -21.1875 4.085938 -22.695312 5.390625 -24 C 6.691406 -25.300781 8.195312 -26.320312 9.90625 -27.0625 C 11.625 -27.800781 13.46875 -28.171875 15.4375 -28.171875 Z M 15.4375 -22.84375 C 13.820312 -22.84375 12.378906 -22.441406 11.109375 -21.640625 C 9.847656 -20.847656 8.859375 -19.78125 8.140625 -18.4375 C 7.421875 -17.09375 7.0625 -15.597656 7.0625 -13.953125 C 7.0625 -12.328125 7.421875 -10.832031 8.140625 -9.46875 C 8.859375 -8.113281 9.847656 -7.035156 11.109375 -6.234375 C 12.378906 -5.441406 13.820312 -5.046875 15.4375 -5.046875 C 17.082031 -5.046875 18.535156 -5.441406 19.796875 -6.234375 C 21.066406 -7.035156 22.0625 -8.113281 22.78125 -9.46875 C 23.5 -10.832031 23.859375 -12.328125 23.859375 -13.953125 C 23.859375 -15.597656 23.5 -17.09375 22.78125 -18.4375 C 22.0625 -19.78125 21.066406 -20.847656 19.796875 -21.640625 C 18.535156 -22.441406 17.082031 -22.84375 15.4375 -22.84375 Z M 15.4375 -22.84375 "/></g></g><g style="fill:#ffffff;fill-opacity:0.4;"><g transform="translate(21.776034, 166.61946)"><path style="stroke:none" d="M 13.984375 0.34375 C 13.421875 0.34375 12.628906 0.285156 11.609375 0.171875 C 10.597656 0.0546875 9.503906 -0.203125 8.328125 -0.609375 C 7.160156 -1.015625 6.039062 -1.644531 4.96875 -2.5 C 3.976562 -3.332031 3.132812 -4.257812 2.4375 -5.28125 L 6.671875 -8.171875 C 6.910156 -7.847656 7.148438 -7.546875 7.390625 -7.265625 C 7.628906 -6.992188 7.898438 -6.738281 8.203125 -6.5 C 8.785156 -6.019531 9.429688 -5.660156 10.140625 -5.421875 C 10.847656 -5.191406 11.519531 -5.03125 12.15625 -4.9375 C 12.789062 -4.84375 13.316406 -4.796875 13.734375 -4.796875 C 14.148438 -4.796875 14.359375 -4.796875 14.359375 -4.796875 L 14.53125 -4.796875 C 15.96875 -4.796875 17.082031 -5.109375 17.875 -5.734375 C 18.664062 -6.359375 19.082031 -7.046875 19.125 -7.796875 C 19.175781 -8.609375 18.753906 -9.414062 17.859375 -10.21875 C 16.960938 -11.03125 15.492188 -11.578125 13.453125 -11.859375 C 10.398438 -12.179688 7.96875 -13.179688 6.15625 -14.859375 C 5.25 -15.691406 4.566406 -16.632812 4.109375 -17.6875 C 3.660156 -18.738281 3.484375 -19.820312 3.578125 -20.9375 C 3.691406 -22.207031 4.164062 -23.414062 5 -24.5625 C 5.84375 -25.71875 7.082031 -26.632812 8.71875 -27.3125 C 10.351562 -28 12.398438 -28.273438 14.859375 -28.140625 C 15.960938 -28.140625 17.066406 -28 18.171875 -27.71875 C 19.273438 -27.4375 20.300781 -27.078125 21.25 -26.640625 C 22.195312 -26.203125 23 -25.738281 23.65625 -25.25 L 20.65625 -21.078125 C 20.238281 -21.398438 19.695312 -21.707031 19.03125 -22 C 18.375 -22.289062 17.675781 -22.535156 16.9375 -22.734375 C 16.195312 -22.929688 15.476562 -23.03125 14.78125 -23.03125 L 14.671875 -23.03125 C 12.773438 -23.125 11.316406 -22.898438 10.296875 -22.359375 C 9.273438 -21.828125 8.738281 -21.210938 8.6875 -20.515625 C 8.644531 -19.867188 8.882812 -19.296875 9.40625 -18.796875 C 9.925781 -18.296875 10.601562 -17.890625 11.4375 -17.578125 C 12.269531 -17.265625 13.128906 -17.050781 14.015625 -16.9375 L 14.09375 -16.9375 C 16.539062 -16.632812 18.53125 -15.984375 20.0625 -14.984375 C 21.59375 -13.992188 22.691406 -12.820312 23.359375 -11.46875 C 24.035156 -10.125 24.332031 -8.78125 24.25 -7.4375 C 24.175781 -6.164062 23.75 -4.929688 22.96875 -3.734375 C 22.195312 -2.546875 21.109375 -1.570312 19.703125 -0.8125 C 18.296875 -0.0625 16.597656 0.320312 14.609375 0.34375 Z M 13.984375 0.34375 "/></g></g><g style="fill:#ffffff;fill-opacity:0.4;"><g transform="translate(48.456319, 166.61946)"><path style="stroke:none" d="M 18.4375 -27.828125 L 23.609375 -27.828125 L 23.609375 -9.640625 C 23.609375 -8.222656 23.34375 -6.894531 22.8125 -5.65625 C 22.28125 -4.414062 21.546875 -3.320312 20.609375 -2.375 C 19.671875 -1.4375 18.585938 -0.703125 17.359375 -0.171875 C 16.128906 0.359375 14.804688 0.625 13.390625 0.625 L 12.6875 0.625 C 11.28125 0.625 9.957031 0.359375 8.71875 -0.171875 C 7.476562 -0.703125 6.382812 -1.4375 5.4375 -2.375 C 4.5 -3.320312 3.765625 -4.414062 3.234375 -5.65625 C 2.703125 -6.894531 2.4375 -8.222656 2.4375 -9.640625 L 2.4375 -27.828125 L 7.65625 -27.828125 L 7.65625 -9.640625 C 7.65625 -8.710938 7.878906 -7.859375 8.328125 -7.078125 C 8.785156 -6.296875 9.394531 -5.679688 10.15625 -5.234375 C 10.914062 -4.785156 11.757812 -4.5625 12.6875 -4.5625 L 13.390625 -4.5625 C 14.316406 -4.5625 15.160156 -4.785156 15.921875 -5.234375 C 16.691406 -5.679688 17.300781 -6.296875 17.75 -7.078125 C 18.207031 -7.859375 18.4375 -8.710938 18.4375 -9.640625 Z M 18.4375 -27.828125 "/></g></g><g style="fill:#ffffff;fill-opacity:0.4;"><g transform="translate(74.510464, 166.61946)"><path style="stroke:none" d="M 30.71875 -16.25 C 30.757812 -15.875 30.796875 -15.484375 30.828125 -15.078125 C 30.867188 -14.671875 30.890625 -14.269531 30.890625 -13.875 C 30.890625 -11.90625 30.515625 -10.0625 29.765625 -8.34375 C 29.023438 -6.632812 28.003906 -5.128906 26.703125 -3.828125 C 25.410156 -2.523438 23.90625 -1.503906 22.1875 -0.765625 C 20.46875 -0.0234375 18.625 0.34375 16.65625 0.34375 C 14.6875 0.34375 12.84375 -0.0234375 11.125 -0.765625 C 9.414062 -1.503906 7.910156 -2.523438 6.609375 -3.828125 C 5.304688 -5.128906 4.285156 -6.632812 3.546875 -8.34375 C 2.804688 -10.0625 2.4375 -11.90625 2.4375 -13.875 C 2.4375 -15.84375 2.804688 -17.6875 3.546875 -19.40625 C 4.285156 -21.125 5.304688 -22.628906 6.609375 -23.921875 C 7.910156 -25.222656 9.414062 -26.242188 11.125 -26.984375 C 12.84375 -27.734375 14.6875 -28.109375 16.65625 -28.109375 C 18.238281 -28.109375 19.75 -27.863281 21.1875 -27.375 C 22.625 -26.882812 23.929688 -26.203125 25.109375 -25.328125 L 21.21875 -21.421875 C 19.914062 -22.328125 18.394531 -22.78125 16.65625 -22.78125 C 15.03125 -22.78125 13.585938 -22.378906 12.328125 -21.578125 C 11.066406 -20.773438 10.078125 -19.703125 9.359375 -18.359375 C 8.640625 -17.015625 8.28125 -15.519531 8.28125 -13.875 C 8.28125 -12.25 8.640625 -10.757812 9.359375 -9.40625 C 10.078125 -8.050781 11.066406 -6.972656 12.328125 -6.171875 C 13.585938 -5.367188 15.03125 -4.96875 16.65625 -4.96875 C 18.601562 -4.96875 20.285156 -5.53125 21.703125 -6.65625 C 23.117188 -7.78125 24.09375 -9.203125 24.625 -10.921875 L 17.734375 -10.921875 L 17.734375 -16.25 Z M 30.71875 -16.25 "/></g></g><g style="fill:#ffffff;fill-opacity:0.4;"><g transform="translate(107.834731, 166.61946)"><path style="stroke:none" d="M 18.84375 0 L 16.796875 -6.921875 L 9.953125 -6.921875 L 7.890625 0 L 2.4375 0 L 10.640625 -27.828125 L 16.109375 -27.828125 L 16.109375 -27.75 L 24.28125 0 Z M 11.484375 -12.109375 L 15.265625 -12.109375 L 13.390625 -18.578125 Z M 11.484375 -12.109375 "/></g></g><g style="fill:#ffffff;fill-opacity:0.4;"><g transform="translate(134.549805, 166.61946)"><path style="stroke:none" d="M 24.171875 -17.390625 C 24.171875 -15.648438 23.929688 -14.035156 23.453125 -12.546875 C 22.984375 -11.066406 22.171875 -9.851562 21.015625 -8.90625 L 24.171875 0 L 18.71875 0 L 16.203125 -7.03125 C 15.648438 -6.957031 15.0625 -6.921875 14.4375 -6.921875 L 7.65625 -6.921875 L 7.65625 0 L 2.4375 0 L 2.4375 -27.828125 L 14.4375 -27.828125 C 16.800781 -27.828125 18.695312 -27.351562 20.125 -26.40625 C 21.550781 -25.46875 22.582031 -24.210938 23.21875 -22.640625 C 23.851562 -21.066406 24.171875 -19.316406 24.171875 -17.390625 Z M 7.65625 -12.140625 L 14.4375 -12.140625 C 16.21875 -12.140625 17.398438 -12.507812 17.984375 -13.25 C 18.628906 -14.039062 18.953125 -15.421875 18.953125 -17.390625 C 18.953125 -19.265625 18.617188 -20.632812 17.953125 -21.5 C 17.878906 -21.59375 17.722656 -21.726562 17.484375 -21.90625 C 17.253906 -22.09375 16.898438 -22.257812 16.421875 -22.40625 C 15.953125 -22.5625 15.289062 -22.640625 14.4375 -22.640625 L 7.65625 -22.640625 Z M 7.65625 -12.140625 "/></g></g><g style="fill:#ffffff;fill-opacity:1;"><g transform="translate(23.805943, 165.84025)"><path style="stroke:none" d="M 13.984375 0.34375 C 13.421875 0.34375 12.628906 0.285156 11.609375 0.171875 C 10.597656 0.0546875 9.503906 -0.203125 8.328125 -0.609375 C 7.160156 -1.015625 6.039062 -1.644531 4.96875 -2.5 C 3.976562 -3.332031 3.132812 -4.257812 2.4375 -5.28125 L 6.671875 -8.171875 C 6.910156 -7.847656 7.148438 -7.546875 7.390625 -7.265625 C 7.628906 -6.992188 7.898438 -6.738281 8.203125 -6.5 C 8.785156 -6.019531 9.429688 -5.660156 10.140625 -5.421875 C 10.847656 -5.191406 11.519531 -5.03125 12.15625 -4.9375 C 12.789062 -4.84375 13.316406 -4.796875 13.734375 -4.796875 C 14.148438 -4.796875 14.359375 -4.796875 14.359375 -4.796875 L 14.53125 -4.796875 C 15.96875 -4.796875 17.082031 -5.109375 17.875 -5.734375 C 18.664062 -6.359375 19.082031 -7.046875 19.125 -7.796875 C 19.175781 -8.609375 18.753906 -9.414062 17.859375 -10.21875 C 16.960938 -11.03125 15.492188 -11.578125 13.453125 -11.859375 C 10.398438 -12.179688 7.96875 -13.179688 6.15625 -14.859375 C 5.25 -15.691406 4.566406 -16.632812 4.109375 -17.6875 C 3.660156 -18.738281 3.484375 -19.820312 3.578125 -20.9375 C 3.691406 -22.207031 4.164062 -23.414062 5 -24.5625 C 5.84375 -25.71875 7.082031 -26.632812 8.71875 -27.3125 C 10.351562 -28 12.398438 -28.273438 14.859375 -28.140625 C 15.960938 -28.140625 17.066406 -28 18.171875 -27.71875 C 19.273438 -27.4375 20.300781 -27.078125 21.25 -26.640625 C 22.195312 -26.203125 23 -25.738281 23.65625 -25.25 L 20.65625 -21.078125 C 20.238281 -21.398438 19.695312 -21.707031 19.03125 -22 C 18.375 -22.289062 17.675781 -22.535156 16.9375 -22.734375 C 16.195312 -22.929688 15.476562 -23.03125 14.78125 -23.03125 L 14.671875 -23.03125 C 12.773438 -23.125 11.316406 -22.898438 10.296875 -22.359375 C 9.273438 -21.828125 8.738281 -21.210938 8.6875 -20.515625 C 8.644531 -19.867188 8.882812 -19.296875 9.40625 -18.796875 C 9.925781 -18.296875 10.601562 -17.890625 11.4375 -17.578125 C 12.269531 -17.265625 13.128906 -17.050781 14.015625 -16.9375 L 14.09375 -16.9375 C 16.539062 -16.632812 18.53125 -15.984375 20.0625 -14.984375 C 21.59375 -13.992188 22.691406 -12.820312 23.359375 -11.46875 C 24.035156 -10.125 24.332031 -8.78125 24.25 -7.4375 C 24.175781 -6.164062 23.75 -4.929688 22.96875 -3.734375 C 22.195312 -2.546875 21.109375 -1.570312 19.703125 -0.8125 C 18.296875 -0.0625 16.597656 0.320312 14.609375 0.34375 Z M 13.984375 0.34375 "/></g></g><g style="fill:#ffffff;fill-opacity:1;"><g transform="translate(50.486227, 165.84025)"><path style="stroke:none" d="M 18.4375 -27.828125 L 23.609375 -27.828125 L 23.609375 -9.640625 C 23.609375 -8.222656 23.34375 -6.894531 22.8125 -5.65625 C 22.28125 -4.414062 21.546875 -3.320312 20.609375 -2.375 C 19.671875 -1.4375 18.585938 -0.703125 17.359375 -0.171875 C 16.128906 0.359375 14.804688 0.625 13.390625 0.625 L 12.6875 0.625 C 11.28125 0.625 9.957031 0.359375 8.71875 -0.171875 C 7.476562 -0.703125 6.382812 -1.4375 5.4375 -2.375 C 4.5 -3.320312 3.765625 -4.414062 3.234375 -5.65625 C 2.703125 -6.894531 2.4375 -8.222656 2.4375 -9.640625 L 2.4375 -27.828125 L 7.65625 -27.828125 L 7.65625 -9.640625 C 7.65625 -8.710938 7.878906 -7.859375 8.328125 -7.078125 C 8.785156 -6.296875 9.394531 -5.679688 10.15625 -5.234375 C 10.914062 -4.785156 11.757812 -4.5625 12.6875 -4.5625 L 13.390625 -4.5625 C 14.316406 -4.5625 15.160156 -4.785156 15.921875 -5.234375 C 16.691406 -5.679688 17.300781 -6.296875 17.75 -7.078125 C 18.207031 -7.859375 18.4375 -8.710938 18.4375 -9.640625 Z M 18.4375 -27.828125 "/></g></g><g style="fill:#ffffff;fill-opacity:1;"><g transform="translate(76.540372, 165.84025)"><path style="stroke:none" d="M 30.71875 -16.25 C 30.757812 -15.875 30.796875 -15.484375 30.828125 -15.078125 C 30.867188 -14.671875 30.890625 -14.269531 30.890625 -13.875 C 30.890625 -11.90625 30.515625 -10.0625 29.765625 -8.34375 C 29.023438 -6.632812 28.003906 -5.128906 26.703125 -3.828125 C 25.410156 -2.523438 23.90625 -1.503906 22.1875 -0.765625 C 20.46875 -0.0234375 18.625 0.34375 16.65625 0.34375 C 14.6875 0.34375 12.84375 -0.0234375 11.125 -0.765625 C 9.414062 -1.503906 7.910156 -2.523438 6.609375 -3.828125 C 5.304688 -5.128906 4.285156 -6.632812 3.546875 -8.34375 C 2.804688 -10.0625 2.4375 -11.90625 2.4375 -13.875 C 2.4375 -15.84375 2.804688 -17.6875 3.546875 -19.40625 C 4.285156 -21.125 5.304688 -22.628906 6.609375 -23.921875 C 7.910156 -25.222656 9.414062 -26.242188 11.125 -26.984375 C 12.84375 -27.734375 14.6875 -28.109375 16.65625 -28.109375 C 18.238281 -28.109375 19.75 -27.863281 21.1875 -27.375 C 22.625 -26.882812 23.929688 -26.203125 25.109375 -25.328125 L 21.21875 -21.421875 C 19.914062 -22.328125 18.394531 -22.78125 16.65625 -22.78125 C 15.03125 -22.78125 13.585938 -22.378906 12.328125 -21.578125 C 11.066406 -20.773438 10.078125 -19.703125 9.359375 -18.359375 C 8.640625 -17.015625 8.28125 -15.519531 8.28125 -13.875 C 8.28125 -12.25 8.640625 -10.757812 9.359375 -9.40625 C 10.078125 -8.050781 11.066406 -6.972656 12.328125 -6.171875 C 13.585938 -5.367188 15.03125 -4.96875 16.65625 -4.96875 C 18.601562 -4.96875 20.285156 -5.53125 21.703125 -6.65625 C 23.117188 -7.78125 24.09375 -9.203125 24.625 -10.921875 L 17.734375 -10.921875 L 17.734375 -16.25 Z M 30.71875 -16.25 "/></g></g><g style="fill:#ffffff;fill-opacity:1;"><g transform="translate(109.864639, 165.84025)"><path style="stroke:none" d="M 18.84375 0 L 16.796875 -6.921875 L 9.953125 -6.921875 L 7.890625 0 L 2.4375 0 L 10.640625 -27.828125 L 16.109375 -27.828125 L 16.109375 -27.75 L 24.28125 0 Z M 11.484375 -12.109375 L 15.265625 -12.109375 L 13.390625 -18.578125 Z M 11.484375 -12.109375 "/></g></g><g style="fill:#ffffff;fill-opacity:1;"><g transform="translate(136.579713, 165.84025)"><path style="stroke:none" d="M 24.171875 -17.390625 C 24.171875 -15.648438 23.929688 -14.035156 23.453125 -12.546875 C 22.984375 -11.066406 22.171875 -9.851562 21.015625 -8.90625 L 24.171875 0 L 18.71875 0 L 16.203125 -7.03125 C 15.648438 -6.957031 15.0625 -6.921875 14.4375 -6.921875 L 7.65625 -6.921875 L 7.65625 0 L 2.4375 0 L 2.4375 -27.828125 L 14.4375 -27.828125 C 16.800781 -27.828125 18.695312 -27.351562 20.125 -26.40625 C 21.550781 -25.46875 22.582031 -24.210938 23.21875 -22.640625 C 23.851562 -21.066406 24.171875 -19.316406 24.171875 -17.390625 Z M 7.65625 -12.140625 L 14.4375 -12.140625 C 16.21875 -12.140625 17.398438 -12.507812 17.984375 -13.25 C 18.628906 -14.039062 18.953125 -15.421875 18.953125 -17.390625 C 18.953125 -19.265625 18.617188 -20.632812 17.953125 -21.5 C 17.878906 -21.59375 17.722656 -21.726562 17.484375 -21.90625 C 17.253906 -22.09375 16.898438 -22.257812 16.421875 -22.40625 C 15.953125 -22.5625 15.289062 -22.640625 14.4375 -22.640625 L 7.65625 -22.640625 Z M 7.65625 -12.140625 "/></g></g></g></svg>