<svg xmlns="http://www.w3.org/2000/svg" xmlns:xlink="http://www.w3.org/1999/xlink" width="50" zoomAndPan="magnify" viewBox="0 0 37.5 37.499999" height="50" preserveAspectRatio="xMidYMid meet" version="1.2"><defs><clipPath id="0608dff56e"><path d="M 0 0 L 37.007812 0 L 37.007812 37.007812 L 0 37.007812 Z M 0 0 "/></clipPath><clipPath id="80f0c51331"><path d="M 37.007812 18.503906 C 37.007812 19.109375 36.976562 19.714844 36.917969 20.316406 C 36.859375 20.921875 36.769531 21.519531 36.652344 22.113281 C 36.53125 22.707031 36.386719 23.292969 36.210938 23.875 C 36.035156 24.453125 35.828125 25.023438 35.597656 25.585938 C 35.367188 26.144531 35.105469 26.691406 34.820312 27.226562 C 34.535156 27.761719 34.226562 28.277344 33.886719 28.78125 C 33.550781 29.285156 33.191406 29.773438 32.804688 30.242188 C 32.421875 30.710938 32.015625 31.160156 31.585938 31.585938 C 31.160156 32.015625 30.710938 32.421875 30.242188 32.804688 C 29.773438 33.191406 29.285156 33.550781 28.78125 33.886719 C 28.277344 34.226562 27.761719 34.535156 27.226562 34.820312 C 26.691406 35.105469 26.144531 35.367188 25.585938 35.597656 C 25.023438 35.828125 24.453125 36.035156 23.875 36.210938 C 23.292969 36.386719 22.707031 36.53125 22.113281 36.652344 C 21.519531 36.769531 20.921875 36.859375 20.316406 36.917969 C 19.714844 36.976562 19.109375 37.007812 18.503906 37.007812 C 17.898438 37.007812 17.292969 36.976562 16.691406 36.917969 C 16.085938 36.859375 15.488281 36.769531 14.894531 36.652344 C 14.300781 36.53125 13.710938 36.386719 13.132812 36.210938 C 12.550781 36.035156 11.980469 35.828125 11.421875 35.597656 C 10.863281 35.367188 10.316406 35.105469 9.78125 34.820312 C 9.246094 34.535156 8.726562 34.226562 8.222656 33.886719 C 7.71875 33.550781 7.234375 33.191406 6.765625 32.804688 C 6.296875 32.421875 5.847656 32.015625 5.417969 31.585938 C 4.992188 31.160156 4.585938 30.710938 4.199219 30.242188 C 3.816406 29.773438 3.453125 29.285156 3.117188 28.78125 C 2.78125 28.277344 2.46875 27.761719 2.183594 27.226562 C 1.898438 26.691406 1.640625 26.144531 1.410156 25.585938 C 1.175781 25.023438 0.972656 24.453125 0.796875 23.875 C 0.621094 23.292969 0.472656 22.707031 0.355469 22.113281 C 0.238281 21.519531 0.148438 20.921875 0.0898438 20.316406 C 0.03125 19.714844 0 19.109375 0 18.503906 C 0 17.898438 0.03125 17.292969 0.0898438 16.691406 C 0.148438 16.085938 0.238281 15.488281 0.355469 14.894531 C 0.472656 14.300781 0.621094 13.710938 0.796875 13.132812 C 0.972656 12.550781 1.175781 11.980469 1.410156 11.421875 C 1.640625 10.863281 1.898438 10.316406 2.183594 9.78125 C 2.46875 9.246094 2.78125 8.726562 3.117188 8.222656 C 3.453125 7.71875 3.816406 7.234375 4.199219 6.765625 C 4.585938 6.296875 4.992188 5.847656 5.417969 5.417969 C 5.847656 4.992188 6.296875 4.585938 6.765625 4.199219 C 7.234375 3.816406 7.71875 3.453125 8.222656 3.117188 C 8.726562 2.78125 9.246094 2.46875 9.78125 2.183594 C 10.316406 1.898438 10.863281 1.640625 11.421875 1.410156 C 11.980469 1.175781 12.550781 0.972656 13.132812 0.796875 C 13.710938 0.621094 14.300781 0.472656 14.894531 0.355469 C 15.488281 0.238281 16.085938 0.148438 16.691406 0.0898438 C 17.292969 0.03125 17.898438 0 18.503906 0 C 19.109375 0 19.714844 0.03125 20.316406 0.0898438 C 20.921875 0.148438 21.519531 0.238281 22.113281 0.355469 C 22.707031 0.472656 23.292969 0.621094 23.875 0.796875 C 24.453125 0.972656 25.023438 1.175781 25.585938 1.410156 C 26.144531 1.640625 26.691406 1.898438 27.226562 2.183594 C 27.761719 2.46875 28.277344 2.78125 28.78125 3.117188 C 29.285156 3.453125 29.773438 3.816406 30.242188 4.199219 C 30.710938 4.585938 31.160156 4.992188 31.585938 5.417969 C 32.015625 5.847656 32.421875 6.296875 32.804688 6.765625 C 33.191406 7.234375 33.550781 7.71875 33.886719 8.222656 C 34.226562 8.726562 34.535156 9.246094 34.820312 9.78125 C 35.105469 10.316406 35.367188 10.863281 35.597656 11.421875 C 35.828125 11.980469 36.035156 12.550781 36.210938 13.132812 C 36.386719 13.710938 36.53125 14.300781 36.652344 14.894531 C 36.769531 15.488281 36.859375 16.085938 36.917969 16.691406 C 36.976562 17.292969 37.007812 17.898438 37.007812 18.503906 Z M 37.007812 18.503906 "/></clipPath><linearGradient x1="0.0498982" gradientTransform="matrix(0.120543,0,0,0.120543,0.0000005,0)" y1="307.049895" x2="307.050611" gradientUnits="userSpaceOnUse" y2="0.050594" id="12b37961ac"><stop style="stop-color:#fec053;stop-opacity:1;" offset="0"/><stop style="stop-color:#fec053;stop-opacity:1;" offset="0.125"/><stop style="stop-color:#fec053;stop-opacity:1;" offset="0.140625"/><stop style="stop-color:#fec053;stop-opacity:1;" offset="0.144531"/><stop style="stop-color:#febf53;stop-opacity:1;" offset="0.148437"/><stop style="stop-color:#febd52;stop-opacity:1;" offset="0.152344"/><stop style="stop-color:#febb52;stop-opacity:1;" offset="0.15625"/><stop style="stop-color:#fdb952;stop-opacity:1;" offset="0.160156"/><stop style="stop-color:#fdb852;stop-opacity:1;" offset="0.164062"/><stop style="stop-color:#fdb652;stop-opacity:1;" offset="0.167969"/><stop style="stop-color:#fdb451;stop-opacity:1;" offset="0.171875"/><stop style="stop-color:#fdb251;stop-opacity:1;" offset="0.175781"/><stop style="stop-color:#fdb051;stop-opacity:1;" offset="0.179688"/><stop style="stop-color:#fdae51;stop-opacity:1;" offset="0.183594"/><stop style="stop-color:#fcac50;stop-opacity:1;" offset="0.1875"/><stop style="stop-color:#fcaa50;stop-opacity:1;" offset="0.191406"/><stop style="stop-color:#fca950;stop-opacity:1;" offset="0.195312"/><stop style="stop-color:#fca750;stop-opacity:1;" offset="0.199219"/><stop style="stop-color:#fca54f;stop-opacity:1;" offset="0.203125"/><stop style="stop-color:#fca34f;stop-opacity:1;" offset="0.207031"/><stop style="stop-color:#fca14f;stop-opacity:1;" offset="0.210938"/><stop style="stop-color:#fc9f4f;stop-opacity:1;" offset="0.214844"/><stop style="stop-color:#fb9d4e;stop-opacity:1;" offset="0.21875"/><stop style="stop-color:#fb9b4e;stop-opacity:1;" offset="0.222656"/><stop style="stop-color:#fb9a4e;stop-opacity:1;" offset="0.226562"/><stop style="stop-color:#fb984e;stop-opacity:1;" offset="0.230469"/><stop style="stop-color:#fb964d;stop-opacity:1;" offset="0.234375"/><stop style="stop-color:#fb944d;stop-opacity:1;" offset="0.238281"/><stop style="stop-color:#fb924d;stop-opacity:1;" offset="0.242188"/><stop style="stop-color:#fa904d;stop-opacity:1;" offset="0.246094"/><stop style="stop-color:#fa8e4c;stop-opacity:1;" offset="0.25"/><stop style="stop-color:#fa8c4c;stop-opacity:1;" offset="0.253906"/><stop style="stop-color:#fa8b4c;stop-opacity:1;" offset="0.257812"/><stop style="stop-color:#fa894c;stop-opacity:1;" offset="0.261719"/><stop style="stop-color:#fa874b;stop-opacity:1;" offset="0.265625"/><stop style="stop-color:#fa854b;stop-opacity:1;" offset="0.269531"/><stop style="stop-color:#f9834b;stop-opacity:1;" offset="0.273437"/><stop style="stop-color:#f9814b;stop-opacity:1;" offset="0.277344"/><stop style="stop-color:#f97f4a;stop-opacity:1;" offset="0.28125"/><stop style="stop-color:#f97d4a;stop-opacity:1;" offset="0.285156"/><stop style="stop-color:#f97c4a;stop-opacity:1;" offset="0.289062"/><stop style="stop-color:#f97a4a;stop-opacity:1;" offset="0.292969"/><stop style="stop-color:#f97849;stop-opacity:1;" offset="0.296875"/><stop style="stop-color:#f87649;stop-opacity:1;" offset="0.300781"/><stop style="stop-color:#f87449;stop-opacity:1;" offset="0.304687"/><stop style="stop-color:#f87249;stop-opacity:1;" offset="0.308594"/><stop style="stop-color:#f87048;stop-opacity:1;" offset="0.3125"/><stop style="stop-color:#f86e48;stop-opacity:1;" offset="0.316406"/><stop style="stop-color:#f86d48;stop-opacity:1;" offset="0.320312"/><stop style="stop-color:#f86b48;stop-opacity:1;" offset="0.324219"/><stop style="stop-color:#f76947;stop-opacity:1;" offset="0.328125"/><stop style="stop-color:#f76747;stop-opacity:1;" offset="0.332031"/><stop style="stop-color:#f76547;stop-opacity:1;" offset="0.335937"/><stop style="stop-color:#f76347;stop-opacity:1;" offset="0.339844"/><stop style="stop-color:#f76147;stop-opacity:1;" offset="0.34375"/><stop style="stop-color:#f75f46;stop-opacity:1;" offset="0.347656"/><stop style="stop-color:#f75e46;stop-opacity:1;" offset="0.351562"/><stop style="stop-color:#f65c46;stop-opacity:1;" offset="0.355469"/><stop style="stop-color:#f65a46;stop-opacity:1;" offset="0.359375"/><stop style="stop-color:#f65845;stop-opacity:1;" offset="0.363281"/><stop style="stop-color:#f65645;stop-opacity:1;" offset="0.367187"/><stop style="stop-color:#f65445;stop-opacity:1;" offset="0.371094"/><stop style="stop-color:#f65245;stop-opacity:1;" offset="0.375"/><stop style="stop-color:#f65044;stop-opacity:1;" offset="0.378906"/><stop style="stop-color:#f54e44;stop-opacity:1;" offset="0.382812"/><stop style="stop-color:#f54d44;stop-opacity:1;" offset="0.386719"/><stop style="stop-color:#f54b44;stop-opacity:1;" offset="0.390625"/><stop style="stop-color:#f54943;stop-opacity:1;" offset="0.394531"/><stop style="stop-color:#f54743;stop-opacity:1;" offset="0.398437"/><stop style="stop-color:#f54543;stop-opacity:1;" offset="0.402344"/><stop style="stop-color:#f54343;stop-opacity:1;" offset="0.40625"/><stop style="stop-color:#f44142;stop-opacity:1;" offset="0.410156"/><stop style="stop-color:#f43f42;stop-opacity:1;" offset="0.414062"/><stop style="stop-color:#f43e42;stop-opacity:1;" offset="0.417969"/><stop style="stop-color:#f43c42;stop-opacity:1;" offset="0.421875"/><stop style="stop-color:#f43a41;stop-opacity:1;" offset="0.425781"/><stop style="stop-color:#f43841;stop-opacity:1;" offset="0.429687"/><stop style="stop-color:#f43641;stop-opacity:1;" offset="0.433594"/><stop style="stop-color:#f43441;stop-opacity:1;" offset="0.4375"/><stop style="stop-color:#f33240;stop-opacity:1;" offset="0.441406"/><stop style="stop-color:#f33040;stop-opacity:1;" offset="0.445312"/><stop style="stop-color:#f32f40;stop-opacity:1;" offset="0.449219"/><stop style="stop-color:#f32d40;stop-opacity:1;" offset="0.453125"/><stop style="stop-color:#f32b3f;stop-opacity:1;" offset="0.457031"/><stop style="stop-color:#f3293f;stop-opacity:1;" offset="0.460937"/><stop style="stop-color:#f3273f;stop-opacity:1;" offset="0.464844"/><stop style="stop-color:#f2253f;stop-opacity:1;" offset="0.46875"/><stop style="stop-color:#f2233e;stop-opacity:1;" offset="0.472656"/><stop style="stop-color:#f2213e;stop-opacity:1;" offset="0.476562"/><stop style="stop-color:#f1213f;stop-opacity:1;" offset="0.480469"/><stop style="stop-color:#f02041;stop-opacity:1;" offset="0.484375"/><stop style="stop-color:#ef2043;stop-opacity:1;" offset="0.488281"/><stop style="stop-color:#ee2046;stop-opacity:1;" offset="0.492187"/><stop style="stop-color:#ec2048;stop-opacity:1;" offset="0.496094"/><stop style="stop-color:#eb204a;stop-opacity:1;" offset="0.5"/><stop style="stop-color:#ea204d;stop-opacity:1;" offset="0.503906"/><stop style="stop-color:#e8204f;stop-opacity:1;" offset="0.507812"/><stop style="stop-color:#e72052;stop-opacity:1;" offset="0.511719"/><stop style="stop-color:#e62054;stop-opacity:1;" offset="0.515625"/><stop style="stop-color:#e42057;stop-opacity:1;" offset="0.519531"/><stop style="stop-color:#e32059;stop-opacity:1;" offset="0.523437"/><stop style="stop-color:#e2205b;stop-opacity:1;" offset="0.527344"/><stop style="stop-color:#e0205e;stop-opacity:1;" offset="0.53125"/><stop style="stop-color:#df2060;stop-opacity:1;" offset="0.535156"/><stop style="stop-color:#de2063;stop-opacity:1;" offset="0.539062"/><stop style="stop-color:#dc2065;stop-opacity:1;" offset="0.542969"/><stop style="stop-color:#db2068;stop-opacity:1;" offset="0.546875"/><stop style="stop-color:#d9206a;stop-opacity:1;" offset="0.550781"/><stop style="stop-color:#d8206d;stop-opacity:1;" offset="0.554687"/><stop style="stop-color:#d7206f;stop-opacity:1;" offset="0.558594"/><stop style="stop-color:#d52071;stop-opacity:1;" offset="0.5625"/><stop style="stop-color:#d41f74;stop-opacity:1;" offset="0.566406"/><stop style="stop-color:#d31f76;stop-opacity:1;" offset="0.570312"/><stop style="stop-color:#d11f79;stop-opacity:1;" offset="0.574219"/><stop style="stop-color:#d01f7b;stop-opacity:1;" offset="0.578125"/><stop style="stop-color:#cf1f7e;stop-opacity:1;" offset="0.582031"/><stop style="stop-color:#cd1f80;stop-opacity:1;" offset="0.585937"/><stop style="stop-color:#cc1f82;stop-opacity:1;" offset="0.589844"/><stop style="stop-color:#cb1f85;stop-opacity:1;" offset="0.59375"/><stop style="stop-color:#c91f87;stop-opacity:1;" offset="0.597656"/><stop style="stop-color:#c81f8a;stop-opacity:1;" offset="0.601562"/><stop style="stop-color:#c71f8c;stop-opacity:1;" offset="0.605469"/><stop style="stop-color:#c51f8f;stop-opacity:1;" offset="0.609375"/><stop style="stop-color:#c41f91;stop-opacity:1;" offset="0.613281"/><stop style="stop-color:#c31f93;stop-opacity:1;" offset="0.617187"/><stop style="stop-color:#c11f96;stop-opacity:1;" offset="0.621094"/><stop style="stop-color:#c01f98;stop-opacity:1;" offset="0.625"/><stop style="stop-color:#be1f9b;stop-opacity:1;" offset="0.628906"/><stop style="stop-color:#bd1f9d;stop-opacity:1;" offset="0.632812"/><stop style="stop-color:#bc1fa0;stop-opacity:1;" offset="0.636719"/><stop style="stop-color:#ba1fa2;stop-opacity:1;" offset="0.640625"/><stop style="stop-color:#b91fa4;stop-opacity:1;" offset="0.644531"/><stop style="stop-color:#b81fa7;stop-opacity:1;" offset="0.648437"/><stop style="stop-color:#b620a8;stop-opacity:1;" offset="0.652344"/><stop style="stop-color:#b421a9;stop-opacity:1;" offset="0.65625"/><stop style="stop-color:#b222aa;stop-opacity:1;" offset="0.660156"/><stop style="stop-color:#b023ab;stop-opacity:1;" offset="0.664062"/><stop style="stop-color:#ae23ac;stop-opacity:1;" offset="0.667969"/><stop style="stop-color:#ac24ad;stop-opacity:1;" offset="0.671875"/><stop style="stop-color:#aa25ae;stop-opacity:1;" offset="0.675781"/><stop style="stop-color:#a926af;stop-opacity:1;" offset="0.679687"/><stop style="stop-color:#a727b0;stop-opacity:1;" offset="0.683594"/><stop style="stop-color:#a528b0;stop-opacity:1;" offset="0.6875"/><stop style="stop-color:#a329b1;stop-opacity:1;" offset="0.691406"/><stop style="stop-color:#a12ab2;stop-opacity:1;" offset="0.695312"/><stop style="stop-color:#9f2bb3;stop-opacity:1;" offset="0.699219"/><stop style="stop-color:#9d2cb4;stop-opacity:1;" offset="0.703125"/><stop style="stop-color:#9b2db5;stop-opacity:1;" offset="0.707031"/><stop style="stop-color:#992eb6;stop-opacity:1;" offset="0.710937"/><stop style="stop-color:#972fb7;stop-opacity:1;" offset="0.714844"/><stop style="stop-color:#9530b8;stop-opacity:1;" offset="0.71875"/><stop style="stop-color:#9331b8;stop-opacity:1;" offset="0.722656"/><stop style="stop-color:#9132b9;stop-opacity:1;" offset="0.726562"/><stop style="stop-color:#8f33ba;stop-opacity:1;" offset="0.730469"/><stop style="stop-color:#8e34bb;stop-opacity:1;" offset="0.734375"/><stop style="stop-color:#8c35bc;stop-opacity:1;" offset="0.738281"/><stop style="stop-color:#8a36bd;stop-opacity:1;" offset="0.742187"/><stop style="stop-color:#8837be;stop-opacity:1;" offset="0.746094"/><stop style="stop-color:#8638bf;stop-opacity:1;" offset="0.75"/><stop style="stop-color:#8439bf;stop-opacity:1;" offset="0.753906"/><stop style="stop-color:#823ac0;stop-opacity:1;" offset="0.757812"/><stop style="stop-color:#803bc1;stop-opacity:1;" offset="0.761719"/><stop style="stop-color:#7e3cc2;stop-opacity:1;" offset="0.765625"/><stop style="stop-color:#7c3cc3;stop-opacity:1;" offset="0.769531"/><stop style="stop-color:#7a3dc4;stop-opacity:1;" offset="0.773437"/><stop style="stop-color:#783ec5;stop-opacity:1;" offset="0.777344"/><stop style="stop-color:#763fc6;stop-opacity:1;" offset="0.78125"/><stop style="stop-color:#7440c7;stop-opacity:1;" offset="0.785156"/><stop style="stop-color:#7341c7;stop-opacity:1;" offset="0.789062"/><stop style="stop-color:#7142c8;stop-opacity:1;" offset="0.792969"/><stop style="stop-color:#6f43c9;stop-opacity:1;" offset="0.796875"/><stop style="stop-color:#6d44ca;stop-opacity:1;" offset="0.800781"/><stop style="stop-color:#6b45cb;stop-opacity:1;" offset="0.804687"/><stop style="stop-color:#6946cc;stop-opacity:1;" offset="0.808594"/><stop style="stop-color:#6747cd;stop-opacity:1;" offset="0.8125"/><stop style="stop-color:#6548ce;stop-opacity:1;" offset="0.816406"/><stop style="stop-color:#6349cf;stop-opacity:1;" offset="0.820312"/><stop style="stop-color:#614acf;stop-opacity:1;" offset="0.824219"/><stop style="stop-color:#5f4bd0;stop-opacity:1;" offset="0.828125"/><stop style="stop-color:#5d4cd1;stop-opacity:1;" offset="0.832031"/><stop style="stop-color:#5b4dd2;stop-opacity:1;" offset="0.835937"/><stop style="stop-color:#594ed3;stop-opacity:1;" offset="0.839844"/><stop style="stop-color:#574fd4;stop-opacity:1;" offset="0.84375"/><stop style="stop-color:#5650d5;stop-opacity:1;" offset="0.847656"/><stop style="stop-color:#5451d6;stop-opacity:1;" offset="0.851562"/><stop style="stop-color:#5351d6;stop-opacity:1;" offset="0.859375"/><stop style="stop-color:#5351d6;stop-opacity:1;" offset="0.875"/><stop style="stop-color:#5351d6;stop-opacity:1;" offset="1"/></linearGradient></defs><g id="acd65ac254"><g clip-rule="nonzero" clip-path="url(#0608dff56e)"><g clip-rule="nonzero" clip-path="url(#80f0c51331)"><path style=" stroke:none;fill-rule:nonzero;fill:url(#12b37961ac);" d="M 0 0 L 0 37.007812 L 37.007812 37.007812 L 37.007812 0 Z M 0 0 "/></g></g><path style=" stroke:none;fill-rule:nonzero;fill:#ffffff;fill-opacity:1;" d="M 23.46875 29.671875 L 13.601562 29.671875 C 10.183594 29.671875 7.402344 26.886719 7.402344 23.46875 L 7.402344 13.601562 C 7.402344 10.183594 10.183594 7.402344 13.601562 7.402344 L 23.46875 7.402344 C 26.886719 7.402344 29.671875 10.183594 29.671875 13.601562 L 29.671875 23.46875 C 29.671875 26.886719 26.886719 29.671875 23.46875 29.671875 Z M 13.601562 8.910156 C 11.015625 8.910156 8.910156 11.015625 8.910156 13.601562 L 8.910156 23.46875 C 8.910156 26.054688 11.015625 28.164062 13.601562 28.164062 L 23.46875 28.164062 C 26.054688 28.164062 28.164062 26.054688 28.164062 23.46875 L 28.164062 13.601562 C 28.164062 11.015625 26.054688 8.910156 23.46875 8.910156 Z M 13.601562 8.910156 "/><path style=" stroke:none;fill-rule:nonzero;fill:#ffffff;fill-opacity:1;" d="M 18.535156 24.050781 C 15.496094 24.050781 13.019531 21.578125 13.019531 18.535156 C 13.019531 15.496094 15.496094 13.019531 18.535156 13.019531 C 21.578125 13.019531 24.050781 15.496094 24.050781 18.535156 C 24.050781 21.578125 21.578125 24.050781 18.535156 24.050781 Z M 18.535156 14.527344 C 16.324219 14.527344 14.527344 16.324219 14.527344 18.535156 C 14.527344 20.746094 16.328125 22.542969 18.535156 22.542969 C 20.746094 22.542969 22.542969 20.746094 22.542969 18.535156 C 22.542969 16.324219 20.746094 14.527344 18.535156 14.527344 Z M 18.535156 14.527344 "/></g></svg>