<svg xmlns="http://www.w3.org/2000/svg" xmlns:xlink="http://www.w3.org/1999/xlink" width="100" zoomAndPan="magnify" viewBox="0 0 75 30.000001" height="40" preserveAspectRatio="xMidYMid meet" version="1.0"><defs><g/></defs><g fill="#f1efe7" fill-opacity="1"><g transform="translate(8.420131, 19.596776)"><g><path d="M 1.59375 -16.609375 C 2.03125 -17.046875 2.546875 -17.265625 3.140625 -17.265625 C 3.734375 -17.265625 4.242188 -17.046875 4.671875 -16.609375 C 5.109375 -16.179688 5.328125 -15.671875 5.328125 -15.078125 C 5.328125 -14.484375 5.109375 -13.96875 4.671875 -13.53125 C 4.242188 -13.101562 3.734375 -12.890625 3.140625 -12.890625 C 2.546875 -12.890625 2.03125 -13.101562 1.59375 -13.53125 C 1.164062 -13.96875 0.953125 -14.484375 0.953125 -15.078125 C 0.953125 -15.671875 1.164062 -16.179688 1.59375 -16.609375 Z M 1.25 -10.671875 L 1.25 0.9375 C 1.25 1.90625 0.910156 2.390625 0.234375 2.390625 C 0.0859375 2.390625 -0.0546875 2.363281 -0.203125 2.3125 C -0.359375 2.269531 -0.484375 2.21875 -0.578125 2.15625 L -0.703125 2.078125 L -1.84375 5.046875 C -1.820312 5.066406 -1.734375 5.109375 -1.578125 5.171875 C -1.429688 5.242188 -1.316406 5.296875 -1.234375 5.328125 C -1.160156 5.367188 -1.03125 5.414062 -0.84375 5.46875 C -0.664062 5.519531 -0.492188 5.5625 -0.328125 5.59375 C -0.160156 5.625 0.046875 5.648438 0.296875 5.671875 C 0.546875 5.703125 0.804688 5.71875 1.078125 5.71875 C 1.773438 5.71875 2.382812 5.59375 2.90625 5.34375 C 3.4375 5.101562 3.835938 4.78125 4.109375 4.375 C 4.390625 3.96875 4.59375 3.535156 4.71875 3.078125 C 4.851562 2.628906 4.921875 2.148438 4.921875 1.640625 L 4.921875 -10.671875 Z M 1.25 -10.671875 "/></g></g></g><g fill="#f1efe7" fill-opacity="1"><g transform="translate(12.638905, 19.596776)"><g><path d="M 1.96875 -1.3125 C 0.976562 -2.40625 0.484375 -3.738281 0.484375 -5.3125 C 0.484375 -6.894531 0.976562 -8.234375 1.96875 -9.328125 C 2.96875 -10.429688 4.238281 -10.984375 5.78125 -10.984375 C 7.195312 -10.984375 8.363281 -10.539062 9.28125 -9.65625 L 9.28125 -10.671875 L 12.953125 -10.671875 L 12.953125 0 L 9.3125 0 L 9.3125 -1.203125 L 9.28125 -1.203125 C 8.363281 -0.191406 7.195312 0.3125 5.78125 0.3125 C 4.238281 0.3125 2.96875 -0.226562 1.96875 -1.3125 Z M 5.109375 -7.125 C 4.628906 -6.65625 4.390625 -6.050781 4.390625 -5.3125 C 4.390625 -4.582031 4.617188 -3.984375 5.078125 -3.515625 C 5.535156 -3.054688 6.140625 -2.828125 6.890625 -2.828125 C 7.609375 -2.828125 8.195312 -3.0625 8.65625 -3.53125 C 9.125 -4.007812 9.359375 -4.609375 9.359375 -5.328125 C 9.359375 -6.054688 9.117188 -6.65625 8.640625 -7.125 C 8.160156 -7.601562 7.578125 -7.84375 6.890625 -7.84375 C 6.179688 -7.84375 5.585938 -7.601562 5.109375 -7.125 Z M 5.109375 -7.125 "/></g></g></g><g fill="#f1efe7" fill-opacity="1"><g transform="translate(24.881642, 19.596776)"><g><path d="M 3.953125 -10.671875 L 6.546875 -4.859375 L 9.15625 -10.671875 L 13.515625 -10.671875 L 7.796875 0 L 5.296875 0 L -0.421875 -10.671875 Z M 3.953125 -10.671875 "/></g></g></g><g fill="#f1efe7" fill-opacity="1"><g transform="translate(36.022645, 19.596776)"><g><path d="M 1.59375 -16.609375 C 2.03125 -17.046875 2.546875 -17.265625 3.140625 -17.265625 C 3.734375 -17.265625 4.242188 -17.046875 4.671875 -16.609375 C 5.109375 -16.179688 5.328125 -15.671875 5.328125 -15.078125 C 5.328125 -14.484375 5.109375 -13.96875 4.671875 -13.53125 C 4.242188 -13.101562 3.734375 -12.890625 3.140625 -12.890625 C 2.546875 -12.890625 2.03125 -13.101562 1.59375 -13.53125 C 1.164062 -13.96875 0.953125 -14.484375 0.953125 -15.078125 C 0.953125 -15.671875 1.164062 -16.179688 1.59375 -16.609375 Z M 1.25 -10.671875 L 1.25 0 L 4.921875 0 L 4.921875 -10.671875 Z M 1.25 -10.671875 "/></g></g></g><g fill="#f1efe7" fill-opacity="1"><g transform="translate(40.345358, 19.596776)"><g><path d="M 12.046875 -4.828125 L 4.3125 -4.828125 C 4.3125 -4.078125 4.550781 -3.519531 5.03125 -3.15625 C 5.519531 -2.800781 6.046875 -2.625 6.609375 -2.625 C 7.203125 -2.625 7.671875 -2.703125 8.015625 -2.859375 C 8.367188 -3.015625 8.769531 -3.332031 9.21875 -3.8125 L 11.875 -2.46875 C 10.769531 -0.613281 8.925781 0.3125 6.34375 0.3125 C 4.738281 0.3125 3.359375 -0.238281 2.203125 -1.34375 C 1.054688 -2.445312 0.484375 -3.773438 0.484375 -5.328125 C 0.484375 -6.878906 1.054688 -8.207031 2.203125 -9.3125 C 3.359375 -10.425781 4.738281 -10.984375 6.34375 -10.984375 C 8.03125 -10.984375 9.40625 -10.492188 10.46875 -9.515625 C 11.53125 -8.535156 12.0625 -7.140625 12.0625 -5.328125 C 12.0625 -5.078125 12.054688 -4.910156 12.046875 -4.828125 Z M 4.40625 -6.859375 L 8.46875 -6.859375 C 8.382812 -7.410156 8.164062 -7.835938 7.8125 -8.140625 C 7.457031 -8.441406 7.003906 -8.59375 6.453125 -8.59375 C 5.835938 -8.59375 5.347656 -8.429688 4.984375 -8.109375 C 4.628906 -7.785156 4.4375 -7.367188 4.40625 -6.859375 Z M 4.40625 -6.859375 "/></g></g></g><g fill="#f1efe7" fill-opacity="1"><g transform="translate(50.925106, 19.596776)"><g><path d="M 1.25 0 L 1.25 -10.671875 L 4.921875 -10.671875 L 4.921875 -9.125 L 4.96875 -9.125 C 5 -9.1875 5.046875 -9.257812 5.109375 -9.34375 C 5.171875 -9.425781 5.304688 -9.570312 5.515625 -9.78125 C 5.722656 -9.988281 5.941406 -10.171875 6.171875 -10.328125 C 6.410156 -10.492188 6.71875 -10.644531 7.09375 -10.78125 C 7.46875 -10.914062 7.847656 -10.984375 8.234375 -10.984375 C 8.640625 -10.984375 9.035156 -10.925781 9.421875 -10.8125 C 9.804688 -10.695312 10.09375 -10.585938 10.28125 -10.484375 L 10.5625 -10.3125 L 9.03125 -7.203125 C 8.570312 -7.585938 7.929688 -7.78125 7.109375 -7.78125 C 6.671875 -7.78125 6.289062 -7.679688 5.96875 -7.484375 C 5.644531 -7.296875 5.414062 -7.0625 5.28125 -6.78125 C 5.15625 -6.5 5.0625 -6.257812 5 -6.0625 C 4.945312 -5.875 4.921875 -5.722656 4.921875 -5.609375 L 4.921875 0 Z M 1.25 0 "/></g></g></g><g fill="#f1efe7" fill-opacity="1"><g transform="translate(59.322163, 19.596776)"><g><path d="M 3.625 -4.453125 C 4.28125 -4.453125 4.84375 -4.21875 5.3125 -3.75 C 5.78125 -3.289062 6.015625 -2.726562 6.015625 -2.0625 C 6.015625 -1.40625 5.78125 -0.84375 5.3125 -0.375 C 4.84375 0.0820312 4.28125 0.3125 3.625 0.3125 C 2.96875 0.3125 2.40625 0.0820312 1.9375 -0.375 C 1.476562 -0.84375 1.25 -1.40625 1.25 -2.0625 C 1.25 -2.726562 1.476562 -3.289062 1.9375 -3.75 C 2.40625 -4.21875 2.96875 -4.453125 3.625 -4.453125 Z M 3.625 -4.453125 "/></g></g></g></svg>