<svg xmlns="http://www.w3.org/2000/svg" xmlns:xlink="http://www.w3.org/1999/xlink" width="350" zoomAndPan="magnify" viewBox="0 0 262.5 187.499995" height="250" preserveAspectRatio="xMidYMid meet" version="1.2"><defs/><g id="ec71a36e34"><g style="fill:#ff8d55;fill-opacity:0.4;"><g transform="translate(40.562089, 89.562881)"><path style="stroke:none" d="M 15.71875 -8.640625 L 40.3125 -8.640625 L 40.3125 0 L 4.0625 0 L 4.0625 -8.640625 L 28.59375 -37.765625 L 4.0625 -37.765625 L 4.0625 -46.40625 L 40.25 -46.40625 L 40.25 -37.765625 Z M 15.71875 -8.640625 "/></g></g><g style="fill:#ff8d55;fill-opacity:0.4;"><g transform="translate(84.923645, 89.562881)"><path style="stroke:none" d="M 30.96875 -37.8125 L 12.765625 -37.8125 L 12.765625 -27.609375 L 23.609375 -27.609375 L 23.609375 -18.96875 L 12.765625 -18.96875 L 12.765625 -8.640625 L 30.96875 -8.640625 L 30.96875 0 L 4.0625 0 L 4.0625 -46.453125 L 30.96875 -46.453125 Z M 30.96875 -37.8125 "/></g></g><g style="fill:#ff8d55;fill-opacity:0.4;"><g transform="translate(119.948975, 89.562881)"><path style="stroke:none" d="M 40.3125 -29 C 40.3125 -26.101562 39.914062 -23.414062 39.125 -20.9375 C 38.332031 -18.457031 36.96875 -16.425781 35.03125 -14.84375 L 40.3125 0 L 31.203125 0 L 27.03125 -11.71875 C 26.101562 -11.601562 25.113281 -11.546875 24.0625 -11.546875 L 12.765625 -11.546875 L 12.765625 0 L 4.0625 0 L 4.0625 -46.40625 L 24.0625 -46.40625 C 28.007812 -46.40625 31.171875 -45.617188 33.546875 -44.046875 C 35.929688 -42.484375 37.65625 -40.382812 38.71875 -37.75 C 39.78125 -35.125 40.3125 -32.207031 40.3125 -29 Z M 12.765625 -20.234375 L 24.0625 -20.234375 C 27.039062 -20.234375 29.015625 -20.851562 29.984375 -22.09375 C 31.066406 -23.40625 31.609375 -25.707031 31.609375 -29 C 31.609375 -32.132812 31.046875 -34.414062 29.921875 -35.84375 C 29.804688 -36 29.554688 -36.226562 29.171875 -36.53125 C 28.785156 -36.84375 28.195312 -37.125 27.40625 -37.375 C 26.613281 -37.632812 25.5 -37.765625 24.0625 -37.765625 L 12.765625 -37.765625 Z M 12.765625 -20.234375 "/></g></g><g style="fill:#ff8d55;fill-opacity:0.4;"><g transform="translate(164.310535, 89.562881)"><path style="stroke:none" d="M 25.75 -46.984375 C 29.039062 -46.984375 32.113281 -46.363281 34.96875 -45.125 C 37.832031 -43.882812 40.347656 -42.179688 42.515625 -40.015625 C 44.679688 -37.847656 46.378906 -35.332031 47.609375 -32.46875 C 48.847656 -29.613281 49.46875 -26.546875 49.46875 -23.265625 C 49.46875 -19.972656 48.847656 -16.894531 47.609375 -14.03125 C 46.378906 -11.175781 44.679688 -8.664062 42.515625 -6.5 C 40.347656 -4.332031 37.832031 -2.628906 34.96875 -1.390625 C 32.113281 -0.148438 29.039062 0.46875 25.75 0.46875 C 22.46875 0.46875 19.394531 -0.148438 16.53125 -1.390625 C 13.664062 -2.628906 11.148438 -4.332031 8.984375 -6.5 C 6.816406 -8.664062 5.113281 -11.175781 3.875 -14.03125 C 2.644531 -16.894531 2.03125 -19.972656 2.03125 -23.265625 C 2.03125 -26.546875 2.644531 -29.613281 3.875 -32.46875 C 5.113281 -35.332031 6.816406 -37.847656 8.984375 -40.015625 C 11.148438 -42.179688 13.664062 -43.882812 16.53125 -45.125 C 19.394531 -46.363281 22.46875 -46.984375 25.75 -46.984375 Z M 25.75 -38.109375 C 23.039062 -38.109375 20.632812 -37.441406 18.53125 -36.109375 C 16.425781 -34.773438 14.773438 -32.984375 13.578125 -30.734375 C 12.378906 -28.492188 11.78125 -26.003906 11.78125 -23.265625 C 11.78125 -20.554688 12.378906 -18.066406 13.578125 -15.796875 C 14.773438 -13.535156 16.425781 -11.738281 18.53125 -10.40625 C 20.632812 -9.070312 23.039062 -8.40625 25.75 -8.40625 C 28.5 -8.40625 30.925781 -9.070312 33.03125 -10.40625 C 35.132812 -11.738281 36.785156 -13.535156 37.984375 -15.796875 C 39.179688 -18.066406 39.78125 -20.554688 39.78125 -23.265625 C 39.78125 -26.003906 39.179688 -28.492188 37.984375 -30.734375 C 36.785156 -32.984375 35.132812 -34.773438 33.03125 -36.109375 C 30.925781 -37.441406 28.5 -38.109375 25.75 -38.109375 Z M 25.75 -38.109375 "/></g></g><g style="fill:#e2a165;fill-opacity:1;"><g transform="translate(43.946061, 88.263897)"><path style="stroke:none" d="M 15.71875 -8.640625 L 40.3125 -8.640625 L 40.3125 0 L 4.0625 0 L 4.0625 -8.640625 L 28.59375 -37.765625 L 4.0625 -37.765625 L 4.0625 -46.40625 L 40.25 -46.40625 L 40.25 -37.765625 Z M 15.71875 -8.640625 "/></g></g><g style="fill:#e2a165;fill-opacity:1;"><g transform="translate(88.307616, 88.263897)"><path style="stroke:none" d="M 30.96875 -37.8125 L 12.765625 -37.8125 L 12.765625 -27.609375 L 23.609375 -27.609375 L 23.609375 -18.96875 L 12.765625 -18.96875 L 12.765625 -8.640625 L 30.96875 -8.640625 L 30.96875 0 L 4.0625 0 L 4.0625 -46.453125 L 30.96875 -46.453125 Z M 30.96875 -37.8125 "/></g></g><g style="fill:#e2a165;fill-opacity:1;"><g transform="translate(123.332946, 88.263897)"><path style="stroke:none" d="M 40.3125 -29 C 40.3125 -26.101562 39.914062 -23.414062 39.125 -20.9375 C 38.332031 -18.457031 36.96875 -16.425781 35.03125 -14.84375 L 40.3125 0 L 31.203125 0 L 27.03125 -11.71875 C 26.101562 -11.601562 25.113281 -11.546875 24.0625 -11.546875 L 12.765625 -11.546875 L 12.765625 0 L 4.0625 0 L 4.0625 -46.40625 L 24.0625 -46.40625 C 28.007812 -46.40625 31.171875 -45.617188 33.546875 -44.046875 C 35.929688 -42.484375 37.65625 -40.382812 38.71875 -37.75 C 39.78125 -35.125 40.3125 -32.207031 40.3125 -29 Z M 12.765625 -20.234375 L 24.0625 -20.234375 C 27.039062 -20.234375 29.015625 -20.851562 29.984375 -22.09375 C 31.066406 -23.40625 31.609375 -25.707031 31.609375 -29 C 31.609375 -32.132812 31.046875 -34.414062 29.921875 -35.84375 C 29.804688 -36 29.554688 -36.226562 29.171875 -36.53125 C 28.785156 -36.84375 28.195312 -37.125 27.40625 -37.375 C 26.613281 -37.632812 25.5 -37.765625 24.0625 -37.765625 L 12.765625 -37.765625 Z M 12.765625 -20.234375 "/></g></g><g style="fill:#e2a165;fill-opacity:1;"><g transform="translate(167.694506, 88.263897)"><path style="stroke:none" d="M 25.75 -46.984375 C 29.039062 -46.984375 32.113281 -46.363281 34.96875 -45.125 C 37.832031 -43.882812 40.347656 -42.179688 42.515625 -40.015625 C 44.679688 -37.847656 46.378906 -35.332031 47.609375 -32.46875 C 48.847656 -29.613281 49.46875 -26.546875 49.46875 -23.265625 C 49.46875 -19.972656 48.847656 -16.894531 47.609375 -14.03125 C 46.378906 -11.175781 44.679688 -8.664062 42.515625 -6.5 C 40.347656 -4.332031 37.832031 -2.628906 34.96875 -1.390625 C 32.113281 -0.148438 29.039062 0.46875 25.75 0.46875 C 22.46875 0.46875 19.394531 -0.148438 16.53125 -1.390625 C 13.664062 -2.628906 11.148438 -4.332031 8.984375 -6.5 C 6.816406 -8.664062 5.113281 -11.175781 3.875 -14.03125 C 2.644531 -16.894531 2.03125 -19.972656 2.03125 -23.265625 C 2.03125 -26.546875 2.644531 -29.613281 3.875 -32.46875 C 5.113281 -35.332031 6.816406 -37.847656 8.984375 -40.015625 C 11.148438 -42.179688 13.664062 -43.882812 16.53125 -45.125 C 19.394531 -46.363281 22.46875 -46.984375 25.75 -46.984375 Z M 25.75 -38.109375 C 23.039062 -38.109375 20.632812 -37.441406 18.53125 -36.109375 C 16.425781 -34.773438 14.773438 -32.984375 13.578125 -30.734375 C 12.378906 -28.492188 11.78125 -26.003906 11.78125 -23.265625 C 11.78125 -20.554688 12.378906 -18.066406 13.578125 -15.796875 C 14.773438 -13.535156 16.425781 -11.738281 18.53125 -10.40625 C 20.632812 -9.070312 23.039062 -8.40625 25.75 -8.40625 C 28.5 -8.40625 30.925781 -9.070312 33.03125 -10.40625 C 35.132812 -11.738281 36.785156 -13.535156 37.984375 -15.796875 C 39.179688 -18.066406 39.78125 -20.554688 39.78125 -23.265625 C 39.78125 -26.003906 39.179688 -28.492188 37.984375 -30.734375 C 36.785156 -32.984375 35.132812 -34.773438 33.03125 -36.109375 C 30.925781 -37.441406 28.5 -38.109375 25.75 -38.109375 Z M 25.75 -38.109375 "/></g></g><g style="fill:#ffffff;fill-opacity:0.4;"><g transform="translate(12.002638, 146.034147)"><path style="stroke:none" d="M 23.3125 0.578125 C 22.382812 0.578125 21.066406 0.476562 19.359375 0.28125 C 17.660156 0.09375 15.835938 -0.335938 13.890625 -1.015625 C 11.941406 -1.691406 10.078125 -2.742188 8.296875 -4.171875 C 6.628906 -5.566406 5.21875 -7.113281 4.0625 -8.8125 L 11.140625 -13.625 C 11.523438 -13.082031 11.921875 -12.578125 12.328125 -12.109375 C 12.734375 -11.648438 13.1875 -11.226562 13.6875 -10.84375 C 14.65625 -10.03125 15.726562 -9.429688 16.90625 -9.046875 C 18.082031 -8.660156 19.203125 -8.390625 20.265625 -8.234375 C 21.328125 -8.078125 22.207031 -8 22.90625 -8 C 23.601562 -8 23.953125 -8 23.953125 -8 L 24.25 -8 C 26.644531 -8 28.5 -8.519531 29.8125 -9.5625 C 31.125 -10.613281 31.820312 -11.753906 31.90625 -12.984375 C 31.976562 -14.335938 31.269531 -15.691406 29.78125 -17.046875 C 28.289062 -18.398438 25.847656 -19.3125 22.453125 -19.78125 C 17.347656 -20.320312 13.285156 -21.984375 10.265625 -24.765625 C 8.753906 -26.160156 7.617188 -27.734375 6.859375 -29.484375 C 6.109375 -31.242188 5.8125 -33.054688 5.96875 -34.921875 C 6.164062 -37.046875 6.957031 -39.0625 8.34375 -40.96875 C 9.738281 -42.882812 11.800781 -44.410156 14.53125 -45.546875 C 17.257812 -46.691406 20.671875 -47.148438 24.765625 -46.921875 C 26.617188 -46.921875 28.460938 -46.6875 30.296875 -46.21875 C 32.140625 -45.757812 33.851562 -45.160156 35.4375 -44.421875 C 37.019531 -43.691406 38.351562 -42.921875 39.4375 -42.109375 L 34.453125 -35.140625 C 33.753906 -35.679688 32.851562 -36.191406 31.75 -36.671875 C 30.65625 -37.160156 29.488281 -37.566406 28.25 -37.890625 C 27.007812 -38.222656 25.8125 -38.390625 24.65625 -38.390625 L 24.46875 -38.390625 C 21.300781 -38.546875 18.863281 -38.175781 17.15625 -37.28125 C 15.457031 -36.394531 14.570312 -35.375 14.5 -34.21875 C 14.425781 -33.132812 14.820312 -32.175781 15.6875 -31.34375 C 16.5625 -30.519531 17.691406 -29.84375 19.078125 -29.3125 C 20.472656 -28.789062 21.90625 -28.4375 23.375 -28.25 L 23.484375 -28.25 C 27.585938 -27.738281 30.914062 -26.648438 33.46875 -24.984375 C 36.019531 -23.328125 37.851562 -21.378906 38.96875 -19.140625 C 40.09375 -16.898438 40.578125 -14.65625 40.421875 -12.40625 C 40.304688 -10.28125 39.597656 -8.222656 38.296875 -6.234375 C 37.003906 -4.242188 35.1875 -2.617188 32.84375 -1.359375 C 30.507812 -0.109375 27.679688 0.535156 24.359375 0.578125 Z M 23.3125 0.578125 "/></g></g><g style="fill:#ffffff;fill-opacity:0.4;"><g transform="translate(56.480173, 146.034147)"><path style="stroke:none" d="M 30.734375 -46.40625 L 39.375 -46.40625 L 39.375 -16.0625 C 39.375 -13.707031 38.929688 -11.492188 38.046875 -9.421875 C 37.160156 -7.359375 35.929688 -5.539062 34.359375 -3.96875 C 32.796875 -2.40625 30.988281 -1.175781 28.9375 -0.28125 C 26.894531 0.601562 24.691406 1.046875 22.328125 1.046875 L 21.171875 1.046875 C 18.804688 1.046875 16.585938 0.601562 14.515625 -0.28125 C 12.453125 -1.175781 10.640625 -2.40625 9.078125 -3.96875 C 7.515625 -5.539062 6.285156 -7.359375 5.390625 -9.421875 C 4.503906 -11.492188 4.0625 -13.707031 4.0625 -16.0625 L 4.0625 -46.40625 L 12.765625 -46.40625 L 12.765625 -16.0625 C 12.765625 -14.519531 13.140625 -13.097656 13.890625 -11.796875 C 14.640625 -10.503906 15.648438 -9.476562 16.921875 -8.71875 C 18.203125 -7.96875 19.617188 -7.59375 21.171875 -7.59375 L 22.328125 -7.59375 C 23.878906 -7.59375 25.289062 -7.96875 26.5625 -8.71875 C 27.84375 -9.476562 28.859375 -10.503906 29.609375 -11.796875 C 30.359375 -13.097656 30.734375 -14.519531 30.734375 -16.0625 Z M 30.734375 -46.40625 "/></g></g><g style="fill:#ffffff;fill-opacity:0.4;"><g transform="translate(99.913898, 146.034147)"><path style="stroke:none" d="M 51.21875 -27.09375 C 51.289062 -26.46875 51.351562 -25.816406 51.40625 -25.140625 C 51.46875 -24.460938 51.5 -23.796875 51.5 -23.140625 C 51.5 -19.859375 50.878906 -16.785156 49.640625 -13.921875 C 48.410156 -11.054688 46.710938 -8.539062 44.546875 -6.375 C 42.378906 -4.207031 39.863281 -2.503906 37 -1.265625 C 34.144531 -0.0351562 31.070312 0.578125 27.78125 0.578125 C 24.5 0.578125 21.425781 -0.0351562 18.5625 -1.265625 C 15.695312 -2.503906 13.179688 -4.207031 11.015625 -6.375 C 8.847656 -8.539062 7.144531 -11.054688 5.90625 -13.921875 C 4.675781 -16.785156 4.0625 -19.859375 4.0625 -23.140625 C 4.0625 -26.429688 4.675781 -29.503906 5.90625 -32.359375 C 7.144531 -35.222656 8.847656 -37.738281 11.015625 -39.90625 C 13.179688 -42.070312 15.695312 -43.769531 18.5625 -45 C 21.425781 -46.238281 24.5 -46.859375 27.78125 -46.859375 C 30.40625 -46.859375 32.914062 -46.453125 35.3125 -45.640625 C 37.71875 -44.828125 39.90625 -43.6875 41.875 -42.21875 L 35.375 -35.734375 C 33.207031 -37.234375 30.675781 -37.984375 27.78125 -37.984375 C 25.070312 -37.984375 22.664062 -37.316406 20.5625 -35.984375 C 18.457031 -34.648438 16.800781 -32.863281 15.59375 -30.625 C 14.394531 -28.382812 13.796875 -25.890625 13.796875 -23.140625 C 13.796875 -20.429688 14.394531 -17.945312 15.59375 -15.6875 C 16.800781 -13.425781 18.457031 -11.628906 20.5625 -10.296875 C 22.664062 -8.960938 25.070312 -8.296875 27.78125 -8.296875 C 31.03125 -8.296875 33.832031 -9.234375 36.1875 -11.109375 C 38.550781 -12.984375 40.175781 -15.351562 41.0625 -18.21875 L 29.578125 -18.21875 L 29.578125 -27.09375 Z M 51.21875 -27.09375 "/></g></g><g style="fill:#ffffff;fill-opacity:0.4;"><g transform="translate(155.467325, 146.034147)"><path style="stroke:none" d="M 31.4375 0 L 28.015625 -11.546875 L 16.59375 -11.546875 L 13.171875 0 L 4.0625 0 L 17.75 -46.40625 L 26.859375 -46.40625 L 26.859375 -46.28125 L 40.484375 0 Z M 19.140625 -20.1875 L 25.46875 -20.1875 L 22.328125 -30.96875 Z M 19.140625 -20.1875 "/></g></g><g style="fill:#ffffff;fill-opacity:0.4;"><g transform="translate(200.002856, 146.034147)"><path style="stroke:none" d="M 40.3125 -29 C 40.3125 -26.101562 39.914062 -23.414062 39.125 -20.9375 C 38.332031 -18.457031 36.96875 -16.425781 35.03125 -14.84375 L 40.3125 0 L 31.203125 0 L 27.03125 -11.71875 C 26.101562 -11.601562 25.113281 -11.546875 24.0625 -11.546875 L 12.765625 -11.546875 L 12.765625 0 L 4.0625 0 L 4.0625 -46.40625 L 24.0625 -46.40625 C 28.007812 -46.40625 31.171875 -45.617188 33.546875 -44.046875 C 35.929688 -42.484375 37.65625 -40.382812 38.71875 -37.75 C 39.78125 -35.125 40.3125 -32.207031 40.3125 -29 Z M 12.765625 -20.234375 L 24.0625 -20.234375 C 27.039062 -20.234375 29.015625 -20.851562 29.984375 -22.09375 C 31.066406 -23.40625 31.609375 -25.707031 31.609375 -29 C 31.609375 -32.132812 31.046875 -34.414062 29.921875 -35.84375 C 29.804688 -36 29.554688 -36.226562 29.171875 -36.53125 C 28.785156 -36.84375 28.195312 -37.125 27.40625 -37.375 C 26.613281 -37.632812 25.5 -37.765625 24.0625 -37.765625 L 12.765625 -37.765625 Z M 12.765625 -20.234375 "/></g></g><g style="fill:#ffffff;fill-opacity:1;"><g transform="translate(15.38661, 144.73516)"><path style="stroke:none" d="M 23.3125 0.578125 C 22.382812 0.578125 21.066406 0.476562 19.359375 0.28125 C 17.660156 0.09375 15.835938 -0.335938 13.890625 -1.015625 C 11.941406 -1.691406 10.078125 -2.742188 8.296875 -4.171875 C 6.628906 -5.566406 5.21875 -7.113281 4.0625 -8.8125 L 11.140625 -13.625 C 11.523438 -13.082031 11.921875 -12.578125 12.328125 -12.109375 C 12.734375 -11.648438 13.1875 -11.226562 13.6875 -10.84375 C 14.65625 -10.03125 15.726562 -9.429688 16.90625 -9.046875 C 18.082031 -8.660156 19.203125 -8.390625 20.265625 -8.234375 C 21.328125 -8.078125 22.207031 -8 22.90625 -8 C 23.601562 -8 23.953125 -8 23.953125 -8 L 24.25 -8 C 26.644531 -8 28.5 -8.519531 29.8125 -9.5625 C 31.125 -10.613281 31.820312 -11.753906 31.90625 -12.984375 C 31.976562 -14.335938 31.269531 -15.691406 29.78125 -17.046875 C 28.289062 -18.398438 25.847656 -19.3125 22.453125 -19.78125 C 17.347656 -20.320312 13.285156 -21.984375 10.265625 -24.765625 C 8.753906 -26.160156 7.617188 -27.734375 6.859375 -29.484375 C 6.109375 -31.242188 5.8125 -33.054688 5.96875 -34.921875 C 6.164062 -37.046875 6.957031 -39.0625 8.34375 -40.96875 C 9.738281 -42.882812 11.800781 -44.410156 14.53125 -45.546875 C 17.257812 -46.691406 20.671875 -47.148438 24.765625 -46.921875 C 26.617188 -46.921875 28.460938 -46.6875 30.296875 -46.21875 C 32.140625 -45.757812 33.851562 -45.160156 35.4375 -44.421875 C 37.019531 -43.691406 38.351562 -42.921875 39.4375 -42.109375 L 34.453125 -35.140625 C 33.753906 -35.679688 32.851562 -36.191406 31.75 -36.671875 C 30.65625 -37.160156 29.488281 -37.566406 28.25 -37.890625 C 27.007812 -38.222656 25.8125 -38.390625 24.65625 -38.390625 L 24.46875 -38.390625 C 21.300781 -38.546875 18.863281 -38.175781 17.15625 -37.28125 C 15.457031 -36.394531 14.570312 -35.375 14.5 -34.21875 C 14.425781 -33.132812 14.820312 -32.175781 15.6875 -31.34375 C 16.5625 -30.519531 17.691406 -29.84375 19.078125 -29.3125 C 20.472656 -28.789062 21.90625 -28.4375 23.375 -28.25 L 23.484375 -28.25 C 27.585938 -27.738281 30.914062 -26.648438 33.46875 -24.984375 C 36.019531 -23.328125 37.851562 -21.378906 38.96875 -19.140625 C 40.09375 -16.898438 40.578125 -14.65625 40.421875 -12.40625 C 40.304688 -10.28125 39.597656 -8.222656 38.296875 -6.234375 C 37.003906 -4.242188 35.1875 -2.617188 32.84375 -1.359375 C 30.507812 -0.109375 27.679688 0.535156 24.359375 0.578125 Z M 23.3125 0.578125 "/></g></g><g style="fill:#ffffff;fill-opacity:1;"><g transform="translate(59.864144, 144.73516)"><path style="stroke:none" d="M 30.734375 -46.40625 L 39.375 -46.40625 L 39.375 -16.0625 C 39.375 -13.707031 38.929688 -11.492188 38.046875 -9.421875 C 37.160156 -7.359375 35.929688 -5.539062 34.359375 -3.96875 C 32.796875 -2.40625 30.988281 -1.175781 28.9375 -0.28125 C 26.894531 0.601562 24.691406 1.046875 22.328125 1.046875 L 21.171875 1.046875 C 18.804688 1.046875 16.585938 0.601562 14.515625 -0.28125 C 12.453125 -1.175781 10.640625 -2.40625 9.078125 -3.96875 C 7.515625 -5.539062 6.285156 -7.359375 5.390625 -9.421875 C 4.503906 -11.492188 4.0625 -13.707031 4.0625 -16.0625 L 4.0625 -46.40625 L 12.765625 -46.40625 L 12.765625 -16.0625 C 12.765625 -14.519531 13.140625 -13.097656 13.890625 -11.796875 C 14.640625 -10.503906 15.648438 -9.476562 16.921875 -8.71875 C 18.203125 -7.96875 19.617188 -7.59375 21.171875 -7.59375 L 22.328125 -7.59375 C 23.878906 -7.59375 25.289062 -7.96875 26.5625 -8.71875 C 27.84375 -9.476562 28.859375 -10.503906 29.609375 -11.796875 C 30.359375 -13.097656 30.734375 -14.519531 30.734375 -16.0625 Z M 30.734375 -46.40625 "/></g></g><g style="fill:#ffffff;fill-opacity:1;"><g transform="translate(103.29787, 144.73516)"><path style="stroke:none" d="M 51.21875 -27.09375 C 51.289062 -26.46875 51.351562 -25.816406 51.40625 -25.140625 C 51.46875 -24.460938 51.5 -23.796875 51.5 -23.140625 C 51.5 -19.859375 50.878906 -16.785156 49.640625 -13.921875 C 48.410156 -11.054688 46.710938 -8.539062 44.546875 -6.375 C 42.378906 -4.207031 39.863281 -2.503906 37 -1.265625 C 34.144531 -0.0351562 31.070312 0.578125 27.78125 0.578125 C 24.5 0.578125 21.425781 -0.0351562 18.5625 -1.265625 C 15.695312 -2.503906 13.179688 -4.207031 11.015625 -6.375 C 8.847656 -8.539062 7.144531 -11.054688 5.90625 -13.921875 C 4.675781 -16.785156 4.0625 -19.859375 4.0625 -23.140625 C 4.0625 -26.429688 4.675781 -29.503906 5.90625 -32.359375 C 7.144531 -35.222656 8.847656 -37.738281 11.015625 -39.90625 C 13.179688 -42.070312 15.695312 -43.769531 18.5625 -45 C 21.425781 -46.238281 24.5 -46.859375 27.78125 -46.859375 C 30.40625 -46.859375 32.914062 -46.453125 35.3125 -45.640625 C 37.71875 -44.828125 39.90625 -43.6875 41.875 -42.21875 L 35.375 -35.734375 C 33.207031 -37.234375 30.675781 -37.984375 27.78125 -37.984375 C 25.070312 -37.984375 22.664062 -37.316406 20.5625 -35.984375 C 18.457031 -34.648438 16.800781 -32.863281 15.59375 -30.625 C 14.394531 -28.382812 13.796875 -25.890625 13.796875 -23.140625 C 13.796875 -20.429688 14.394531 -17.945312 15.59375 -15.6875 C 16.800781 -13.425781 18.457031 -11.628906 20.5625 -10.296875 C 22.664062 -8.960938 25.070312 -8.296875 27.78125 -8.296875 C 31.03125 -8.296875 33.832031 -9.234375 36.1875 -11.109375 C 38.550781 -12.984375 40.175781 -15.351562 41.0625 -18.21875 L 29.578125 -18.21875 L 29.578125 -27.09375 Z M 51.21875 -27.09375 "/></g></g><g style="fill:#ffffff;fill-opacity:1;"><g transform="translate(158.851297, 144.73516)"><path style="stroke:none" d="M 31.4375 0 L 28.015625 -11.546875 L 16.59375 -11.546875 L 13.171875 0 L 4.0625 0 L 17.75 -46.40625 L 26.859375 -46.40625 L 26.859375 -46.28125 L 40.484375 0 Z M 19.140625 -20.1875 L 25.46875 -20.1875 L 22.328125 -30.96875 Z M 19.140625 -20.1875 "/></g></g><g style="fill:#ffffff;fill-opacity:1;"><g transform="translate(203.386828, 144.73516)"><path style="stroke:none" d="M 40.3125 -29 C 40.3125 -26.101562 39.914062 -23.414062 39.125 -20.9375 C 38.332031 -18.457031 36.96875 -16.425781 35.03125 -14.84375 L 40.3125 0 L 31.203125 0 L 27.03125 -11.71875 C 26.101562 -11.601562 25.113281 -11.546875 24.0625 -11.546875 L 12.765625 -11.546875 L 12.765625 0 L 4.0625 0 L 4.0625 -46.40625 L 24.0625 -46.40625 C 28.007812 -46.40625 31.171875 -45.617188 33.546875 -44.046875 C 35.929688 -42.484375 37.65625 -40.382812 38.71875 -37.75 C 39.78125 -35.125 40.3125 -32.207031 40.3125 -29 Z M 12.765625 -20.234375 L 24.0625 -20.234375 C 27.039062 -20.234375 29.015625 -20.851562 29.984375 -22.09375 C 31.066406 -23.40625 31.609375 -25.707031 31.609375 -29 C 31.609375 -32.132812 31.046875 -34.414062 29.921875 -35.84375 C 29.804688 -36 29.554688 -36.226562 29.171875 -36.53125 C 28.785156 -36.84375 28.195312 -37.125 27.40625 -37.375 C 26.613281 -37.632812 25.5 -37.765625 24.0625 -37.765625 L 12.765625 -37.765625 Z M 12.765625 -20.234375 "/></g></g></g></svg>