<svg xmlns="http://www.w3.org/2000/svg" xmlns:xlink="http://www.w3.org/1999/xlink" width="250" zoomAndPan="magnify" viewBox="0 0 187.5 37.5" height="50" preserveAspectRatio="xMidYMid meet" version="1.2"><defs><clipPath id="ae361d1ff7"><path d="M 0.988281 0 L 186.019531 0 L 186.019531 37.007812 L 0.988281 37.007812 Z M 0.988281 0 "/></clipPath></defs><g id="1fe8dd4a4c"><g clip-rule="nonzero" clip-path="url(#ae361d1ff7)"><path style=" stroke:none;fill-rule:nonzero;fill:#ffffff;fill-opacity:1;" d="M 0.988281 0 L 186.019531 0 L 186.019531 37.007812 L 0.988281 37.007812 Z M 0.988281 0 "/><path style=" stroke:none;fill-rule:nonzero;fill:#000000;fill-opacity:1;" d="M 0.988281 0 L 186.019531 0 L 186.019531 37.007812 L 0.988281 37.007812 Z M 0.988281 0 "/></g><g style="fill:#ff8d55;fill-opacity:0.4;"><g transform="translate(9.835272, 27.99177)"><path style="stroke:none" d="M 6 -3.296875 L 15.375 -3.296875 L 15.375 0 L 1.546875 0 L 1.546875 -3.296875 L 10.90625 -14.40625 L 1.546875 -14.40625 L 1.546875 -17.703125 L 15.359375 -17.703125 L 15.359375 -14.40625 Z M 6 -3.296875 "/></g></g><g style="fill:#ff8d55;fill-opacity:0.4;"><g transform="translate(26.761211, 27.99177)"><path style="stroke:none" d="M 11.8125 -14.421875 L 4.875 -14.421875 L 4.875 -10.53125 L 9 -10.53125 L 9 -7.234375 L 4.875 -7.234375 L 4.875 -3.296875 L 11.8125 -3.296875 L 11.8125 0 L 1.546875 0 L 1.546875 -17.71875 L 11.8125 -17.71875 Z M 11.8125 -14.421875 "/></g></g><g style="fill:#ff8d55;fill-opacity:0.4;"><g transform="translate(40.124959, 27.99177)"><path style="stroke:none" d="M 15.375 -11.0625 C 15.375 -9.957031 15.222656 -8.929688 14.921875 -7.984375 C 14.617188 -7.046875 14.097656 -6.269531 13.359375 -5.65625 L 15.375 0 L 11.90625 0 L 10.3125 -4.46875 C 9.957031 -4.425781 9.582031 -4.40625 9.1875 -4.40625 L 4.875 -4.40625 L 4.875 0 L 1.546875 0 L 1.546875 -17.703125 L 9.1875 -17.703125 C 10.6875 -17.703125 11.890625 -17.398438 12.796875 -16.796875 C 13.703125 -16.203125 14.359375 -15.40625 14.765625 -14.40625 C 15.171875 -13.40625 15.375 -12.289062 15.375 -11.0625 Z M 4.875 -7.71875 L 9.1875 -7.71875 C 10.320312 -7.71875 11.070312 -7.953125 11.4375 -8.421875 C 11.851562 -8.929688 12.0625 -9.8125 12.0625 -11.0625 C 12.0625 -12.257812 11.847656 -13.128906 11.421875 -13.671875 C 11.367188 -13.734375 11.269531 -13.820312 11.125 -13.9375 C 10.976562 -14.050781 10.753906 -14.15625 10.453125 -14.25 C 10.148438 -14.351562 9.726562 -14.40625 9.1875 -14.40625 L 4.875 -14.40625 Z M 4.875 -7.71875 "/></g></g><g style="fill:#ff8d55;fill-opacity:0.4;"><g transform="translate(57.0509, 27.99177)"><path style="stroke:none" d="M 9.828125 -17.921875 C 11.078125 -17.921875 12.25 -17.679688 13.34375 -17.203125 C 14.4375 -16.734375 15.394531 -16.085938 16.21875 -15.265625 C 17.039062 -14.441406 17.6875 -13.484375 18.15625 -12.390625 C 18.632812 -11.296875 18.875 -10.125 18.875 -8.875 C 18.875 -7.613281 18.632812 -6.4375 18.15625 -5.34375 C 17.6875 -4.257812 17.039062 -3.300781 16.21875 -2.46875 C 15.394531 -1.644531 14.4375 -1 13.34375 -0.53125 C 12.25 -0.0625 11.078125 0.171875 9.828125 0.171875 C 8.566406 0.171875 7.390625 -0.0625 6.296875 -0.53125 C 5.210938 -1 4.253906 -1.644531 3.421875 -2.46875 C 2.597656 -3.300781 1.953125 -4.257812 1.484375 -5.34375 C 1.015625 -6.4375 0.78125 -7.613281 0.78125 -8.875 C 0.78125 -10.125 1.015625 -11.296875 1.484375 -12.390625 C 1.953125 -13.484375 2.597656 -14.441406 3.421875 -15.265625 C 4.253906 -16.085938 5.210938 -16.734375 6.296875 -17.203125 C 7.390625 -17.679688 8.566406 -17.921875 9.828125 -17.921875 Z M 9.828125 -14.53125 C 8.796875 -14.53125 7.875 -14.273438 7.0625 -13.765625 C 6.257812 -13.265625 5.628906 -12.582031 5.171875 -11.71875 C 4.710938 -10.863281 4.484375 -9.914062 4.484375 -8.875 C 4.484375 -7.84375 4.710938 -6.894531 5.171875 -6.03125 C 5.628906 -5.164062 6.257812 -4.476562 7.0625 -3.96875 C 7.875 -3.457031 8.796875 -3.203125 9.828125 -3.203125 C 10.867188 -3.203125 11.789062 -3.457031 12.59375 -3.96875 C 13.40625 -4.476562 14.035156 -5.164062 14.484375 -6.03125 C 14.941406 -6.894531 15.171875 -7.84375 15.171875 -8.875 C 15.171875 -9.914062 14.941406 -10.863281 14.484375 -11.71875 C 14.035156 -12.582031 13.40625 -13.265625 12.59375 -13.765625 C 11.789062 -14.273438 10.867188 -14.53125 9.828125 -14.53125 Z M 9.828125 -14.53125 "/></g></g><g style="fill:#e2a165;fill-opacity:1;"><g transform="translate(11.12641, 27.496149)"><path style="stroke:none" d="M 6 -3.296875 L 15.375 -3.296875 L 15.375 0 L 1.546875 0 L 1.546875 -3.296875 L 10.90625 -14.40625 L 1.546875 -14.40625 L 1.546875 -17.703125 L 15.359375 -17.703125 L 15.359375 -14.40625 Z M 6 -3.296875 "/></g></g><g style="fill:#e2a165;fill-opacity:1;"><g transform="translate(28.05235, 27.496149)"><path style="stroke:none" d="M 11.8125 -14.421875 L 4.875 -14.421875 L 4.875 -10.53125 L 9 -10.53125 L 9 -7.234375 L 4.875 -7.234375 L 4.875 -3.296875 L 11.8125 -3.296875 L 11.8125 0 L 1.546875 0 L 1.546875 -17.71875 L 11.8125 -17.71875 Z M 11.8125 -14.421875 "/></g></g><g style="fill:#e2a165;fill-opacity:1;"><g transform="translate(41.416097, 27.496149)"><path style="stroke:none" d="M 15.375 -11.0625 C 15.375 -9.957031 15.222656 -8.929688 14.921875 -7.984375 C 14.617188 -7.046875 14.097656 -6.269531 13.359375 -5.65625 L 15.375 0 L 11.90625 0 L 10.3125 -4.46875 C 9.957031 -4.425781 9.582031 -4.40625 9.1875 -4.40625 L 4.875 -4.40625 L 4.875 0 L 1.546875 0 L 1.546875 -17.703125 L 9.1875 -17.703125 C 10.6875 -17.703125 11.890625 -17.398438 12.796875 -16.796875 C 13.703125 -16.203125 14.359375 -15.40625 14.765625 -14.40625 C 15.171875 -13.40625 15.375 -12.289062 15.375 -11.0625 Z M 4.875 -7.71875 L 9.1875 -7.71875 C 10.320312 -7.71875 11.070312 -7.953125 11.4375 -8.421875 C 11.851562 -8.929688 12.0625 -9.8125 12.0625 -11.0625 C 12.0625 -12.257812 11.847656 -13.128906 11.421875 -13.671875 C 11.367188 -13.734375 11.269531 -13.820312 11.125 -13.9375 C 10.976562 -14.050781 10.753906 -14.15625 10.453125 -14.25 C 10.148438 -14.351562 9.726562 -14.40625 9.1875 -14.40625 L 4.875 -14.40625 Z M 4.875 -7.71875 "/></g></g><g style="fill:#e2a165;fill-opacity:1;"><g transform="translate(58.342038, 27.496149)"><path style="stroke:none" d="M 9.828125 -17.921875 C 11.078125 -17.921875 12.25 -17.679688 13.34375 -17.203125 C 14.4375 -16.734375 15.394531 -16.085938 16.21875 -15.265625 C 17.039062 -14.441406 17.6875 -13.484375 18.15625 -12.390625 C 18.632812 -11.296875 18.875 -10.125 18.875 -8.875 C 18.875 -7.613281 18.632812 -6.4375 18.15625 -5.34375 C 17.6875 -4.257812 17.039062 -3.300781 16.21875 -2.46875 C 15.394531 -1.644531 14.4375 -1 13.34375 -0.53125 C 12.25 -0.0625 11.078125 0.171875 9.828125 0.171875 C 8.566406 0.171875 7.390625 -0.0625 6.296875 -0.53125 C 5.210938 -1 4.253906 -1.644531 3.421875 -2.46875 C 2.597656 -3.300781 1.953125 -4.257812 1.484375 -5.34375 C 1.015625 -6.4375 0.78125 -7.613281 0.78125 -8.875 C 0.78125 -10.125 1.015625 -11.296875 1.484375 -12.390625 C 1.953125 -13.484375 2.597656 -14.441406 3.421875 -15.265625 C 4.253906 -16.085938 5.210938 -16.734375 6.296875 -17.203125 C 7.390625 -17.679688 8.566406 -17.921875 9.828125 -17.921875 Z M 9.828125 -14.53125 C 8.796875 -14.53125 7.875 -14.273438 7.0625 -13.765625 C 6.257812 -13.265625 5.628906 -12.582031 5.171875 -11.71875 C 4.710938 -10.863281 4.484375 -9.914062 4.484375 -8.875 C 4.484375 -7.84375 4.710938 -6.894531 5.171875 -6.03125 C 5.628906 -5.164062 6.257812 -4.476562 7.0625 -3.96875 C 7.875 -3.457031 8.796875 -3.203125 9.828125 -3.203125 C 10.867188 -3.203125 11.789062 -3.457031 12.59375 -3.96875 C 13.40625 -4.476562 14.035156 -5.164062 14.484375 -6.03125 C 14.941406 -6.894531 15.171875 -7.84375 15.171875 -8.875 C 15.171875 -9.914062 14.941406 -10.863281 14.484375 -11.71875 C 14.035156 -12.582031 13.40625 -13.265625 12.59375 -13.765625 C 11.789062 -14.273438 10.867188 -14.53125 9.828125 -14.53125 Z M 9.828125 -14.53125 "/></g></g><g style="fill:#ffffff;fill-opacity:0.4;"><g transform="translate(84.052861, 27.926388)"><path style="stroke:none" d="M 9.03125 0.21875 C 8.675781 0.21875 8.164062 0.179688 7.5 0.109375 C 6.84375 0.0351562 6.132812 -0.128906 5.375 -0.390625 C 4.625 -0.648438 3.90625 -1.0625 3.21875 -1.625 C 2.570312 -2.15625 2.023438 -2.753906 1.578125 -3.421875 L 4.3125 -5.28125 C 4.46875 -5.070312 4.625 -4.875 4.78125 -4.6875 C 4.9375 -4.507812 5.113281 -4.347656 5.3125 -4.203125 C 5.6875 -3.890625 6.097656 -3.65625 6.546875 -3.5 C 7.003906 -3.351562 7.441406 -3.25 7.859375 -3.1875 C 8.273438 -3.132812 8.613281 -3.109375 8.875 -3.109375 C 9.144531 -3.109375 9.28125 -3.109375 9.28125 -3.109375 L 9.40625 -3.109375 C 10.332031 -3.109375 11.050781 -3.304688 11.5625 -3.703125 C 12.070312 -4.109375 12.335938 -4.550781 12.359375 -5.03125 C 12.390625 -5.5625 12.117188 -6.085938 11.546875 -6.609375 C 10.972656 -7.128906 10.023438 -7.484375 8.703125 -7.671875 C 6.722656 -7.878906 5.148438 -8.519531 3.984375 -9.59375 C 3.398438 -10.132812 2.957031 -10.742188 2.65625 -11.421875 C 2.363281 -12.109375 2.25 -12.8125 2.3125 -13.53125 C 2.382812 -14.351562 2.691406 -15.132812 3.234375 -15.875 C 3.773438 -16.625 4.570312 -17.21875 5.625 -17.65625 C 6.6875 -18.101562 8.007812 -18.28125 9.59375 -18.1875 C 10.320312 -18.1875 11.039062 -18.097656 11.75 -17.921875 C 12.457031 -17.742188 13.117188 -17.507812 13.734375 -17.21875 C 14.347656 -16.9375 14.867188 -16.640625 15.296875 -16.328125 L 13.359375 -13.625 C 13.085938 -13.832031 12.738281 -14.03125 12.3125 -14.21875 C 11.882812 -14.40625 11.429688 -14.5625 10.953125 -14.6875 C 10.472656 -14.820312 10.007812 -14.890625 9.5625 -14.890625 L 9.484375 -14.890625 C 8.253906 -14.941406 7.3125 -14.796875 6.65625 -14.453125 C 6 -14.109375 5.65625 -13.710938 5.625 -13.265625 C 5.59375 -12.847656 5.742188 -12.476562 6.078125 -12.15625 C 6.421875 -11.832031 6.859375 -11.566406 7.390625 -11.359375 C 7.929688 -11.160156 8.488281 -11.023438 9.0625 -10.953125 L 9.109375 -10.953125 C 10.691406 -10.753906 11.976562 -10.332031 12.96875 -9.6875 C 13.957031 -9.039062 14.671875 -8.28125 15.109375 -7.40625 C 15.546875 -6.539062 15.734375 -5.675781 15.671875 -4.8125 C 15.628906 -3.988281 15.351562 -3.191406 14.84375 -2.421875 C 14.34375 -1.648438 13.640625 -1.019531 12.734375 -0.53125 C 11.828125 -0.0390625 10.726562 0.207031 9.4375 0.21875 Z M 9.03125 0.21875 "/></g></g><g style="fill:#ffffff;fill-opacity:0.4;"><g transform="translate(101.301964, 27.926388)"><path style="stroke:none" d="M 11.921875 -17.984375 L 15.265625 -17.984375 L 15.265625 -6.234375 C 15.265625 -5.316406 15.09375 -4.457031 14.75 -3.65625 C 14.40625 -2.851562 13.925781 -2.144531 13.3125 -1.53125 C 12.707031 -0.925781 12.007812 -0.453125 11.21875 -0.109375 C 10.425781 0.234375 9.570312 0.40625 8.65625 0.40625 L 8.203125 0.40625 C 7.285156 0.40625 6.425781 0.234375 5.625 -0.109375 C 4.820312 -0.453125 4.117188 -0.925781 3.515625 -1.53125 C 2.910156 -2.144531 2.4375 -2.851562 2.09375 -3.65625 C 1.75 -4.457031 1.578125 -5.316406 1.578125 -6.234375 L 1.578125 -17.984375 L 4.953125 -17.984375 L 4.953125 -6.234375 C 4.953125 -5.628906 5.097656 -5.078125 5.390625 -4.578125 C 5.679688 -4.078125 6.070312 -3.679688 6.5625 -3.390625 C 7.0625 -3.097656 7.609375 -2.953125 8.203125 -2.953125 L 8.65625 -2.953125 C 9.257812 -2.953125 9.804688 -3.097656 10.296875 -3.390625 C 10.796875 -3.679688 11.191406 -4.078125 11.484375 -4.578125 C 11.773438 -5.078125 11.921875 -5.628906 11.921875 -6.234375 Z M 11.921875 -17.984375 "/></g></g><g style="fill:#ffffff;fill-opacity:0.4;"><g transform="translate(118.146261, 27.926388)"><path style="stroke:none" d="M 19.859375 -10.5 C 19.890625 -10.257812 19.914062 -10.007812 19.9375 -9.75 C 19.957031 -9.488281 19.96875 -9.226562 19.96875 -8.96875 C 19.96875 -7.695312 19.726562 -6.503906 19.25 -5.390625 C 18.769531 -4.285156 18.109375 -3.3125 17.265625 -2.46875 C 16.429688 -1.632812 15.457031 -0.976562 14.34375 -0.5 C 13.238281 -0.0195312 12.046875 0.21875 10.765625 0.21875 C 9.492188 0.21875 8.300781 -0.0195312 7.1875 -0.5 C 6.082031 -0.976562 5.109375 -1.632812 4.265625 -2.46875 C 3.429688 -3.3125 2.773438 -4.285156 2.296875 -5.390625 C 1.816406 -6.503906 1.578125 -7.695312 1.578125 -8.96875 C 1.578125 -10.238281 1.816406 -11.425781 2.296875 -12.53125 C 2.773438 -13.644531 3.429688 -14.625 4.265625 -15.46875 C 5.109375 -16.3125 6.082031 -16.972656 7.1875 -17.453125 C 8.300781 -17.929688 9.492188 -18.171875 10.765625 -18.171875 C 11.785156 -18.171875 12.757812 -18.007812 13.6875 -17.6875 C 14.625 -17.375 15.472656 -16.9375 16.234375 -16.375 L 13.71875 -13.84375 C 12.875 -14.4375 11.890625 -14.734375 10.765625 -14.734375 C 9.722656 -14.734375 8.789062 -14.472656 7.96875 -13.953125 C 7.15625 -13.429688 6.515625 -12.734375 6.046875 -11.859375 C 5.578125 -10.992188 5.34375 -10.03125 5.34375 -8.96875 C 5.34375 -7.914062 5.578125 -6.953125 6.046875 -6.078125 C 6.515625 -5.203125 7.15625 -4.503906 7.96875 -3.984375 C 8.789062 -3.472656 9.722656 -3.21875 10.765625 -3.21875 C 12.023438 -3.21875 13.113281 -3.578125 14.03125 -4.296875 C 14.945312 -5.023438 15.578125 -5.945312 15.921875 -7.0625 L 11.46875 -7.0625 L 11.46875 -10.5 Z M 19.859375 -10.5 "/></g></g><g style="fill:#ffffff;fill-opacity:0.4;"><g transform="translate(139.690773, 27.926388)"><path style="stroke:none" d="M 12.1875 0 L 10.859375 -4.46875 L 6.4375 -4.46875 L 5.109375 0 L 1.578125 0 L 6.875 -17.984375 L 10.40625 -17.984375 L 10.40625 -17.9375 L 15.6875 0 Z M 7.421875 -7.828125 L 9.875 -7.828125 L 8.65625 -12 Z M 7.421875 -7.828125 "/></g></g><g style="fill:#ffffff;fill-opacity:0.4;"><g transform="translate(156.962368, 27.926388)"><path style="stroke:none" d="M 15.625 -11.234375 C 15.625 -10.117188 15.46875 -9.078125 15.15625 -8.109375 C 14.851562 -7.148438 14.328125 -6.363281 13.578125 -5.75 L 15.625 0 L 12.09375 0 L 10.484375 -4.546875 C 10.117188 -4.492188 9.734375 -4.46875 9.328125 -4.46875 L 4.953125 -4.46875 L 4.953125 0 L 1.578125 0 L 1.578125 -17.984375 L 9.328125 -17.984375 C 10.859375 -17.984375 12.082031 -17.679688 13 -17.078125 C 13.925781 -16.472656 14.59375 -15.660156 15 -14.640625 C 15.414062 -13.617188 15.625 -12.484375 15.625 -11.234375 Z M 4.953125 -7.84375 L 9.328125 -7.84375 C 10.484375 -7.84375 11.25 -8.082031 11.625 -8.5625 C 12.039062 -9.070312 12.25 -9.960938 12.25 -11.234375 C 12.25 -12.453125 12.035156 -13.335938 11.609375 -13.890625 C 11.554688 -13.953125 11.453125 -14.039062 11.296875 -14.15625 C 11.148438 -14.28125 10.921875 -14.390625 10.609375 -14.484375 C 10.304688 -14.585938 9.878906 -14.640625 9.328125 -14.640625 L 4.953125 -14.640625 Z M 4.953125 -7.84375 "/></g></g><g style="fill:#ffffff;fill-opacity:1;"><g transform="translate(85.365222, 27.42262)"><path style="stroke:none" d="M 9.03125 0.21875 C 8.675781 0.21875 8.164062 0.179688 7.5 0.109375 C 6.84375 0.0351562 6.132812 -0.128906 5.375 -0.390625 C 4.625 -0.648438 3.90625 -1.0625 3.21875 -1.625 C 2.570312 -2.15625 2.023438 -2.753906 1.578125 -3.421875 L 4.3125 -5.28125 C 4.46875 -5.070312 4.625 -4.875 4.78125 -4.6875 C 4.9375 -4.507812 5.113281 -4.347656 5.3125 -4.203125 C 5.6875 -3.890625 6.097656 -3.65625 6.546875 -3.5 C 7.003906 -3.351562 7.441406 -3.25 7.859375 -3.1875 C 8.273438 -3.132812 8.613281 -3.109375 8.875 -3.109375 C 9.144531 -3.109375 9.28125 -3.109375 9.28125 -3.109375 L 9.40625 -3.109375 C 10.332031 -3.109375 11.050781 -3.304688 11.5625 -3.703125 C 12.070312 -4.109375 12.335938 -4.550781 12.359375 -5.03125 C 12.390625 -5.5625 12.117188 -6.085938 11.546875 -6.609375 C 10.972656 -7.128906 10.023438 -7.484375 8.703125 -7.671875 C 6.722656 -7.878906 5.148438 -8.519531 3.984375 -9.59375 C 3.398438 -10.132812 2.957031 -10.742188 2.65625 -11.421875 C 2.363281 -12.109375 2.25 -12.8125 2.3125 -13.53125 C 2.382812 -14.351562 2.691406 -15.132812 3.234375 -15.875 C 3.773438 -16.625 4.570312 -17.21875 5.625 -17.65625 C 6.6875 -18.101562 8.007812 -18.28125 9.59375 -18.1875 C 10.320312 -18.1875 11.039062 -18.097656 11.75 -17.921875 C 12.457031 -17.742188 13.117188 -17.507812 13.734375 -17.21875 C 14.347656 -16.9375 14.867188 -16.640625 15.296875 -16.328125 L 13.359375 -13.625 C 13.085938 -13.832031 12.738281 -14.03125 12.3125 -14.21875 C 11.882812 -14.40625 11.429688 -14.5625 10.953125 -14.6875 C 10.472656 -14.820312 10.007812 -14.890625 9.5625 -14.890625 L 9.484375 -14.890625 C 8.253906 -14.941406 7.3125 -14.796875 6.65625 -14.453125 C 6 -14.109375 5.65625 -13.710938 5.625 -13.265625 C 5.59375 -12.847656 5.742188 -12.476562 6.078125 -12.15625 C 6.421875 -11.832031 6.859375 -11.566406 7.390625 -11.359375 C 7.929688 -11.160156 8.488281 -11.023438 9.0625 -10.953125 L 9.109375 -10.953125 C 10.691406 -10.753906 11.976562 -10.332031 12.96875 -9.6875 C 13.957031 -9.039062 14.671875 -8.28125 15.109375 -7.40625 C 15.546875 -6.539062 15.734375 -5.675781 15.671875 -4.8125 C 15.628906 -3.988281 15.351562 -3.191406 14.84375 -2.421875 C 14.34375 -1.648438 13.640625 -1.019531 12.734375 -0.53125 C 11.828125 -0.0390625 10.726562 0.207031 9.4375 0.21875 Z M 9.03125 0.21875 "/></g></g><g style="fill:#ffffff;fill-opacity:1;"><g transform="translate(102.614325, 27.42262)"><path style="stroke:none" d="M 11.921875 -17.984375 L 15.265625 -17.984375 L 15.265625 -6.234375 C 15.265625 -5.316406 15.09375 -4.457031 14.75 -3.65625 C 14.40625 -2.851562 13.925781 -2.144531 13.3125 -1.53125 C 12.707031 -0.925781 12.007812 -0.453125 11.21875 -0.109375 C 10.425781 0.234375 9.570312 0.40625 8.65625 0.40625 L 8.203125 0.40625 C 7.285156 0.40625 6.425781 0.234375 5.625 -0.109375 C 4.820312 -0.453125 4.117188 -0.925781 3.515625 -1.53125 C 2.910156 -2.144531 2.4375 -2.851562 2.09375 -3.65625 C 1.75 -4.457031 1.578125 -5.316406 1.578125 -6.234375 L 1.578125 -17.984375 L 4.953125 -17.984375 L 4.953125 -6.234375 C 4.953125 -5.628906 5.097656 -5.078125 5.390625 -4.578125 C 5.679688 -4.078125 6.070312 -3.679688 6.5625 -3.390625 C 7.0625 -3.097656 7.609375 -2.953125 8.203125 -2.953125 L 8.65625 -2.953125 C 9.257812 -2.953125 9.804688 -3.097656 10.296875 -3.390625 C 10.796875 -3.679688 11.191406 -4.078125 11.484375 -4.578125 C 11.773438 -5.078125 11.921875 -5.628906 11.921875 -6.234375 Z M 11.921875 -17.984375 "/></g></g><g style="fill:#ffffff;fill-opacity:1;"><g transform="translate(119.458622, 27.42262)"><path style="stroke:none" d="M 19.859375 -10.5 C 19.890625 -10.257812 19.914062 -10.007812 19.9375 -9.75 C 19.957031 -9.488281 19.96875 -9.226562 19.96875 -8.96875 C 19.96875 -7.695312 19.726562 -6.503906 19.25 -5.390625 C 18.769531 -4.285156 18.109375 -3.3125 17.265625 -2.46875 C 16.429688 -1.632812 15.457031 -0.976562 14.34375 -0.5 C 13.238281 -0.0195312 12.046875 0.21875 10.765625 0.21875 C 9.492188 0.21875 8.300781 -0.0195312 7.1875 -0.5 C 6.082031 -0.976562 5.109375 -1.632812 4.265625 -2.46875 C 3.429688 -3.3125 2.773438 -4.285156 2.296875 -5.390625 C 1.816406 -6.503906 1.578125 -7.695312 1.578125 -8.96875 C 1.578125 -10.238281 1.816406 -11.425781 2.296875 -12.53125 C 2.773438 -13.644531 3.429688 -14.625 4.265625 -15.46875 C 5.109375 -16.3125 6.082031 -16.972656 7.1875 -17.453125 C 8.300781 -17.929688 9.492188 -18.171875 10.765625 -18.171875 C 11.785156 -18.171875 12.757812 -18.007812 13.6875 -17.6875 C 14.625 -17.375 15.472656 -16.9375 16.234375 -16.375 L 13.71875 -13.84375 C 12.875 -14.4375 11.890625 -14.734375 10.765625 -14.734375 C 9.722656 -14.734375 8.789062 -14.472656 7.96875 -13.953125 C 7.15625 -13.429688 6.515625 -12.734375 6.046875 -11.859375 C 5.578125 -10.992188 5.34375 -10.03125 5.34375 -8.96875 C 5.34375 -7.914062 5.578125 -6.953125 6.046875 -6.078125 C 6.515625 -5.203125 7.15625 -4.503906 7.96875 -3.984375 C 8.789062 -3.472656 9.722656 -3.21875 10.765625 -3.21875 C 12.023438 -3.21875 13.113281 -3.578125 14.03125 -4.296875 C 14.945312 -5.023438 15.578125 -5.945312 15.921875 -7.0625 L 11.46875 -7.0625 L 11.46875 -10.5 Z M 19.859375 -10.5 "/></g></g><g style="fill:#ffffff;fill-opacity:1;"><g transform="translate(141.003134, 27.42262)"><path style="stroke:none" d="M 12.1875 0 L 10.859375 -4.46875 L 6.4375 -4.46875 L 5.109375 0 L 1.578125 0 L 6.875 -17.984375 L 10.40625 -17.984375 L 10.40625 -17.9375 L 15.6875 0 Z M 7.421875 -7.828125 L 9.875 -7.828125 L 8.65625 -12 Z M 7.421875 -7.828125 "/></g></g><g style="fill:#ffffff;fill-opacity:1;"><g transform="translate(158.274729, 27.42262)"><path style="stroke:none" d="M 15.625 -11.234375 C 15.625 -10.117188 15.46875 -9.078125 15.15625 -8.109375 C 14.851562 -7.148438 14.328125 -6.363281 13.578125 -5.75 L 15.625 0 L 12.09375 0 L 10.484375 -4.546875 C 10.117188 -4.492188 9.734375 -4.46875 9.328125 -4.46875 L 4.953125 -4.46875 L 4.953125 0 L 1.578125 0 L 1.578125 -17.984375 L 9.328125 -17.984375 C 10.859375 -17.984375 12.082031 -17.679688 13 -17.078125 C 13.925781 -16.472656 14.59375 -15.660156 15 -14.640625 C 15.414062 -13.617188 15.625 -12.484375 15.625 -11.234375 Z M 4.953125 -7.84375 L 9.328125 -7.84375 C 10.484375 -7.84375 11.25 -8.082031 11.625 -8.5625 C 12.039062 -9.070312 12.25 -9.960938 12.25 -11.234375 C 12.25 -12.453125 12.035156 -13.335938 11.609375 -13.890625 C 11.554688 -13.953125 11.453125 -14.039062 11.296875 -14.15625 C 11.148438 -14.28125 10.921875 -14.390625 10.609375 -14.484375 C 10.304688 -14.585938 9.878906 -14.640625 9.328125 -14.640625 L 4.953125 -14.640625 Z M 4.953125 -7.84375 "/></g></g></g></svg>